<svg version="1.1" id="Layer_1" xmlns="http://www.w3.org/2000/svg" xmlns:xlink="http://www.w3.org/1999/xlink" x="0px" y="0px"
	 width="100%" viewBox="0 0 644 262" enable-background="new 0 0 644 262" xml:space="preserve">
<path fill="#FFFDFD" opacity="1.000000" stroke="none" 
	d="
M475.000000,263.000000 
	C316.710175,263.000000 158.920380,263.000000 1.065279,263.000000 
	C1.065279,175.734314 1.065279,88.468552 1.065279,1.101400 
	C215.666641,1.101400 430.333313,1.101400 644.976379,1.101400 
	C644.976379,88.412994 644.976379,175.706497 644.976379,263.000000 
	C588.468506,263.000000 531.984253,263.000000 475.000000,263.000000 
M69.413681,92.346169 
	C67.268311,92.264771 65.121315,92.085320 62.977886,92.120796 
	C57.106220,92.217972 55.923622,93.368362 55.908939,99.093246 
	C55.894501,104.722878 56.004452,110.352814 55.879341,116.605217 
	C55.242069,117.099457 54.604801,117.593697 53.046711,117.937592 
	C42.380592,118.006660 31.714472,118.075722 20.242117,118.056107 
	C19.168789,118.141411 18.095461,118.226715 16.288578,118.238800 
	C15.188463,120.392761 13.160031,122.535233 13.133186,124.702492 
	C12.889850,144.346710 12.968631,163.995300 13.017149,183.642471 
	C13.031739,189.550354 14.459594,190.838257 20.477863,190.875961 
	C32.295422,190.950012 44.112949,191.028915 55.937908,191.560715 
	C55.937908,191.560715 56.024204,192.007416 55.928314,192.822205 
	C56.403305,198.825424 57.567944,199.785690 64.839966,199.789581 
	C93.994576,199.805206 123.149223,199.803253 152.303818,199.774002 
	C161.257751,199.765015 161.257706,199.715637 164.023804,190.865662 
	C175.328110,190.865662 186.795853,190.949402 198.260025,190.784302 
	C200.200974,190.756348 202.126495,189.657562 204.028961,189.028824 
	C204.028961,189.028824 204.030991,189.050751 204.412415,188.808182 
	C204.641937,188.599564 204.790970,188.344009 205.079391,187.727814 
	C205.079391,187.727814 205.141602,187.349838 205.619324,186.821106 
	C205.679581,185.903931 205.739838,184.986771 205.938660,183.132843 
	C205.862839,163.422760 205.787033,143.712692 205.877228,123.444374 
	C205.684616,122.919968 205.492004,122.395561 205.146393,121.334831 
	C204.823990,120.885025 204.501602,120.435219 203.876328,119.397560 
	C202.918030,119.034256 201.959747,118.670944 200.086716,118.111099 
	C195.038788,118.123085 189.990845,118.135078 184.029099,117.981842 
	C177.352356,118.002426 170.675629,118.023003 163.558197,117.770416 
	C163.324265,117.516289 163.090347,117.262161 162.974594,116.076553 
	C162.985550,110.419930 163.034286,104.763062 162.997009,99.106758 
	C162.958572,93.273087 161.848083,92.161583 155.939056,92.118431 
	C148.119751,92.061325 140.296432,91.950401 132.481750,92.143250 
	C129.070755,92.227432 127.709908,91.207809 127.842445,87.650887 
	C128.065308,81.669975 127.858505,75.674080 127.894028,69.684845 
	C127.921188,65.105972 125.604301,62.991077 121.136909,62.994740 
	C114.481873,63.000195 107.826820,62.996624 101.171791,63.003654 
	C90.024445,63.015427 89.202461,63.928101 90.122940,75.951279 
	C90.075279,81.293175 90.027626,86.635063 89.059944,92.033234 
	C84.684921,92.276398 80.309891,92.519569 75.101746,92.737663 
	C73.437057,92.752289 71.772377,92.766914 69.413681,92.346169 
M589.500000,16.958574 
	C568.925232,16.958574 548.350403,16.958574 527.345642,16.958574 
	C527.345642,19.727556 527.346069,21.697407 527.345642,23.667257 
	C527.339294,50.814930 527.477112,77.963966 527.219910,105.109268 
	C527.159424,111.492065 528.010010,116.759705 533.663025,120.725670 
	C536.744019,122.887199 538.893372,126.346252 541.890015,128.669113 
	C543.914062,130.238098 546.674500,131.723969 549.120178,131.747787 
	C572.768066,131.978058 596.419006,131.895309 620.069092,131.882111 
	C621.525330,131.881302 622.981445,131.712891 624.638428,131.609985 
	C624.638428,123.128868 624.638428,114.950256 624.638428,106.116302 
	C602.024902,106.116302 579.822998,106.116302 557.634766,106.116302 
	C557.634766,99.410629 557.634766,93.374138 557.634766,86.860336 
	C577.180176,86.860336 596.265564,86.860336 615.496948,86.860336 
	C615.496948,78.321266 615.496948,70.281731 615.496948,61.828663 
	C613.270874,61.828663 611.459656,61.828705 609.648376,61.828659 
	C593.826111,61.828270 578.002075,61.698540 562.182800,61.916714 
	C558.135010,61.972538 556.806091,60.635605 557.140991,56.755272 
	C557.397827,53.779594 557.431702,50.739845 557.134033,47.771793 
	C556.701843,43.463165 558.139282,41.992306 562.662659,42.052341 
	C581.313049,42.299866 599.968506,42.158031 618.622131,42.159283 
	C620.571655,42.159412 622.521179,42.159302 624.704041,42.159302 
	C624.704041,33.539589 624.704041,25.494907 624.704041,16.958735 
	C613.075378,16.958735 601.787720,16.958735 589.500000,16.958574 
M442.680817,128.995956 
	C442.680817,115.219452 442.680817,101.442947 442.680817,87.052429 
	C462.368195,87.052429 481.429199,87.052429 500.691223,87.052429 
	C500.691223,78.387146 500.691223,70.347549 500.691223,61.829247 
	C498.347229,61.829247 496.378754,61.829571 494.410278,61.829197 
	C478.749695,61.826214 463.089081,61.838200 447.428558,61.801559 
	C445.392914,61.796799 442.758606,62.510017 442.746735,59.023319 
	C442.728271,53.587307 442.741882,48.151184 442.741882,42.049377 
	C465.330566,42.049377 487.536774,42.049377 509.710815,42.049377 
	C509.710815,33.319363 509.710815,25.273848 509.710815,16.955542 
	C486.457642,16.955542 463.642273,17.245647 440.841797,16.791101 
	C433.318909,16.641127 427.267822,17.899517 422.643921,24.203207 
	C420.695343,26.859644 417.772644,28.801294 415.822662,31.456951 
	C414.383514,33.416851 412.980286,36.001808 412.964844,38.317642 
	C412.766754,67.971405 412.816162,97.626846 412.830536,127.281860 
	C412.831207,128.701508 413.089661,130.121017 413.259735,131.865463 
	C422.340759,131.865463 430.981415,131.930191 439.618286,131.778687 
	C440.630585,131.760941 441.622009,130.551788 442.680817,128.995956 
M522.701843,225.864365 
	C519.755981,221.430069 516.879272,216.947647 513.837036,212.580551 
	C512.163757,210.178604 511.710052,208.070282 514.445312,206.233047 
	C524.901733,199.209702 527.692627,189.172516 525.901672,177.305374 
	C525.827942,176.816925 525.815308,176.292496 525.906616,175.809830 
	C527.919800,165.160767 523.559509,157.398163 515.330872,150.964951 
	C512.430786,148.697632 509.873779,147.217957 506.052917,147.251801 
	C486.065460,147.428909 466.075623,147.338791 446.086609,147.341537 
	C444.491180,147.341751 442.895752,147.341553 441.068481,147.341553 
	C441.068481,179.174896 441.068481,210.255112 441.068481,241.630707 
	C449.195435,241.630707 457.048309,241.630707 465.403442,241.630707 
	C465.403442,230.955307 465.403442,220.698837 465.403442,210.051880 
	C470.211182,210.051880 474.534607,210.293243 478.816620,209.976059 
	C482.285553,209.719116 484.257721,211.033203 485.959656,213.957458 
	C490.893616,222.434937 496.046753,230.786469 501.226227,239.117569 
	C501.939606,240.265045 503.262604,241.789398 504.348511,241.826797 
	C511.428101,242.070557 518.520142,241.952087 527.318359,241.952087 
	C525.697205,236.059982 524.384155,231.287628 522.701843,225.864365 
M393.485657,147.322327 
	C384.991486,147.323288 376.418396,148.053070 368.022766,147.144012 
	C357.088257,145.960052 348.793030,149.227676 342.052032,157.843231 
	C339.970428,160.503723 338.758881,162.813843 338.775726,166.216568 
	C338.891907,189.699738 338.821899,213.183792 338.833649,236.667572 
	C338.834473,238.279449 339.012878,239.891235 339.120178,241.696091 
	C347.204376,241.696091 354.925293,241.696091 363.177185,241.696091 
	C363.177185,234.394180 363.356964,227.433548 363.104279,220.488647 
	C362.970032,216.798920 364.109558,215.461975 367.892517,215.578094 
	C375.879761,215.823273 383.886719,215.881699 391.870605,215.597046 
	C396.019531,215.449127 397.392670,216.734848 397.193237,220.926483 
	C396.864777,227.830994 397.104126,234.762527 397.104126,241.588928 
	C405.859680,241.588928 413.744965,241.588928 421.895203,241.588928 
	C421.895203,217.004196 421.751678,192.866852 422.011017,168.733856 
	C422.065735,163.642044 420.249634,160.295502 417.021576,156.507004 
	C410.895264,149.317017 403.933899,145.639114 393.485657,147.322327 
M546.069946,147.560272 
	C545.651794,149.400833 544.878174,151.239853 544.870178,153.082199 
	C544.782593,173.238220 544.813599,193.394745 544.814575,213.551147 
	C544.815369,228.559326 544.865967,228.508224 555.540344,238.788879 
	C557.957214,241.116608 560.401611,242.159912 563.849731,242.126373 
	C582.338562,241.946518 600.830078,242.040115 619.320618,242.039276 
	C621.088135,242.039185 622.855652,242.039261 624.702271,242.039261 
	C624.702271,234.786896 624.702271,228.226379 624.702271,221.102203 
	C622.239563,221.102203 620.109741,221.101898 617.979980,221.102249 
	C604.986633,221.104416 591.992371,221.199326 579.000122,221.080994 
	C567.764771,220.978668 569.520691,222.830399 569.093384,211.351196 
	C568.911865,206.474655 570.631470,204.986023 575.390259,205.080887 
	C588.045349,205.333130 600.709656,205.084900 613.368530,205.211716 
	C616.481506,205.242889 617.981995,204.528183 617.744629,201.056793 
	C617.472534,197.077667 617.484680,193.051743 617.749451,189.071182 
	C618.000122,185.303391 616.550903,184.197937 612.865234,184.254974 
	C600.207886,184.450836 587.545959,184.355804 574.885742,184.335632 
	C573.129883,184.332840 571.374207,184.127762 569.178345,183.988388 
	C569.178345,179.847229 569.377563,176.199661 569.122070,172.584198 
	C568.868713,168.999252 570.320496,168.045380 573.738953,168.086792 
	C587.230164,168.250290 600.724426,168.163422 614.217529,168.168747 
	C617.663757,168.170105 621.109985,168.168945 624.682739,168.168945 
	C624.682739,160.954376 624.682739,154.408722 624.682739,147.377991 
	C598.525879,147.377991 572.745361,147.377991 546.069946,147.560272 
M331.192780,111.659485 
	C331.103882,110.050140 331.015015,108.440788 330.894836,106.264648 
	C310.262573,106.264648 290.026093,106.264648 269.180756,106.264648 
	C269.180756,76.287987 269.180756,46.897575 269.180756,17.282095 
	C259.001831,17.282095 249.445236,17.282095 239.331039,17.282095 
	C239.331039,19.563929 239.331146,21.528645 239.330994,23.493361 
	C239.328751,50.818512 239.490250,78.145393 239.201248,105.467514 
	C239.134628,111.765999 240.256134,116.758278 245.564896,120.668015 
	C248.610825,122.911224 250.819000,126.276695 253.817200,128.605331 
	C255.845078,130.180359 258.581909,131.725601 261.018768,131.752945 
	C282.676239,131.995804 304.337555,131.903030 325.997711,131.886108 
	C327.598358,131.884857 329.198883,131.703888 331.191071,131.582642 
	C331.191071,124.915428 331.191071,118.768028 331.192780,111.659485 
M264.043213,193.500000 
	C264.043213,185.225357 264.043213,176.950714 264.043213,168.165833 
	C273.103149,168.165833 281.556793,167.955582 289.987579,168.301407 
	C292.338715,168.397858 294.763916,169.902847 296.898132,171.188339 
	C299.116669,172.524673 300.880188,175.496948 303.096191,175.781799 
	C308.440033,176.468719 313.931824,176.004517 319.399384,176.004517 
	C320.607269,167.613953 321.030060,160.165115 313.301392,155.025879 
	C311.671417,153.942001 310.297333,152.363327 309.073517,150.802368 
	C306.789856,147.889572 303.922333,147.173065 300.319336,147.244080 
	C289.834564,147.450729 279.274048,148.063919 268.872894,147.107666 
	C257.740784,146.084213 249.006149,149.056107 242.682983,158.236191 
	C241.119278,160.506393 239.544662,163.364136 239.492188,165.982224 
	C239.185272,181.293167 240.048737,196.658615 239.084702,211.915161 
	C238.362335,223.347122 240.895584,232.450089 250.590439,238.875565 
	C252.778778,240.325974 255.454163,241.838226 257.942719,241.903732 
	C269.921753,242.219116 281.941071,241.554276 293.891571,242.218719 
	C302.362305,242.689682 308.151855,240.035049 314.316345,233.987640 
	C320.728180,227.697601 320.227051,221.467194 319.382080,213.824585 
	C317.092255,213.824585 315.114471,213.887970 313.141968,213.813034 
	C306.490051,213.560318 299.774475,212.974030 295.334930,219.626328 
	C294.859009,220.339447 293.666382,220.958740 292.799622,220.967468 
	C283.377441,221.062515 273.953949,221.026917 264.042664,221.026917 
	C264.042664,211.742844 264.042664,203.121414 264.043213,193.500000 
M354.109009,49.541729 
	C354.109009,69.121979 354.109009,88.702232 354.109009,108.499718 
	C350.665375,108.763382 347.948181,108.971428 345.348541,109.170471 
	C345.348541,116.984612 345.348541,124.214363 345.348541,131.851364 
	C360.703949,131.851364 375.659302,131.889648 390.613007,131.750885 
	C391.459717,131.743042 392.997925,130.302597 393.021332,129.494354 
	C393.216766,122.743965 393.132324,115.985481 393.132324,109.165726 
	C389.759033,108.899567 387.164795,108.694870 384.369507,108.474319 
	C384.369507,85.604416 384.369507,63.061073 384.369507,40.255611 
	C387.406708,40.089951 390.143311,39.940689 392.860504,39.792484 
	C392.860504,32.008904 392.860504,24.763193 392.860504,17.317760 
	C376.823059,17.317760 361.116638,17.317760 345.360657,17.317760 
	C345.360657,25.064655 345.360657,32.436222 345.360657,40.040470 
	C347.115540,40.040470 348.443207,39.996601 349.766602,40.053009 
	C351.048859,40.107662 352.326752,40.265396 354.109528,40.422058 
	C354.109528,43.310791 354.109528,45.933731 354.109009,49.541729 
z"/>
<path fill="#E24F64" opacity="1.000000" stroke="none" 
	d="
M590.000000,16.958654 
	C601.787720,16.958735 613.075378,16.958735 624.704041,16.958735 
	C624.704041,25.494907 624.704041,33.539589 624.704041,42.159302 
	C622.521179,42.159302 620.571655,42.159412 618.622131,42.159283 
	C599.968506,42.158031 581.313049,42.299866 562.662659,42.052341 
	C558.139282,41.992306 556.701843,43.463165 557.134033,47.771793 
	C557.431702,50.739845 557.397827,53.779594 557.140991,56.755272 
	C556.806091,60.635605 558.135010,61.972538 562.182800,61.916714 
	C578.002075,61.698540 593.826111,61.828270 609.648376,61.828659 
	C611.459656,61.828705 613.270874,61.828663 615.496948,61.828663 
	C615.496948,70.281731 615.496948,78.321266 615.496948,86.860336 
	C596.265564,86.860336 577.180176,86.860336 557.634766,86.860336 
	C557.634766,93.374138 557.634766,99.410629 557.634766,106.116302 
	C579.822998,106.116302 602.024902,106.116302 624.638428,106.116302 
	C624.638428,114.950256 624.638428,123.128868 624.638428,131.609985 
	C622.981445,131.712891 621.525330,131.881302 620.069092,131.882111 
	C596.419006,131.895309 572.768066,131.978058 549.120178,131.747787 
	C546.674500,131.723969 543.914062,130.238098 541.890015,128.669113 
	C538.893372,126.346252 536.744019,122.887199 533.663025,120.725670 
	C528.010010,116.759705 527.159424,111.492065 527.219910,105.109268 
	C527.477112,77.963966 527.339294,50.814930 527.345642,23.667257 
	C527.346069,21.697407 527.345642,19.727556 527.345642,16.958574 
	C548.350403,16.958574 568.925232,16.958574 590.000000,16.958654 
z"/>
<path fill="#E24E63" opacity="1.000000" stroke="none" 
	d="
M442.651978,129.445450 
	C441.622009,130.551788 440.630585,131.760941 439.618286,131.778687 
	C430.981415,131.930191 422.340759,131.865463 413.259735,131.865463 
	C413.089661,130.121017 412.831207,128.701508 412.830536,127.281860 
	C412.816162,97.626846 412.766754,67.971405 412.964844,38.317642 
	C412.980286,36.001808 414.383514,33.416851 415.822662,31.456951 
	C417.772644,28.801294 420.695343,26.859644 422.643921,24.203207 
	C427.267822,17.899517 433.318909,16.641127 440.841797,16.791101 
	C463.642273,17.245647 486.457642,16.955542 509.710815,16.955542 
	C509.710815,25.273848 509.710815,33.319363 509.710815,42.049377 
	C487.536774,42.049377 465.330566,42.049377 442.741882,42.049377 
	C442.741882,48.151184 442.728271,53.587307 442.746735,59.023319 
	C442.758606,62.510017 445.392914,61.796799 447.428558,61.801559 
	C463.089081,61.838200 478.749695,61.826214 494.410278,61.829197 
	C496.378754,61.829571 498.347229,61.829247 500.691223,61.829247 
	C500.691223,70.347549 500.691223,78.387146 500.691223,87.052429 
	C481.429199,87.052429 462.368195,87.052429 442.680817,87.052429 
	C442.680817,101.442947 442.680817,115.219452 442.651978,129.445450 
z"/>
<path fill="#E25064" opacity="1.000000" stroke="none" 
	d="
M522.886475,226.189819 
	C524.384155,231.287628 525.697205,236.059982 527.318359,241.952087 
	C518.520142,241.952087 511.428101,242.070557 504.348511,241.826797 
	C503.262604,241.789398 501.939606,240.265045 501.226227,239.117569 
	C496.046753,230.786469 490.893616,222.434937 485.959656,213.957458 
	C484.257721,211.033203 482.285553,209.719116 478.816620,209.976059 
	C474.534607,210.293243 470.211182,210.051880 465.403442,210.051880 
	C465.403442,220.698837 465.403442,230.955307 465.403442,241.630707 
	C457.048309,241.630707 449.195435,241.630707 441.068481,241.630707 
	C441.068481,210.255112 441.068481,179.174896 441.068481,147.341553 
	C442.895752,147.341553 444.491180,147.341751 446.086609,147.341537 
	C466.075623,147.338791 486.065460,147.428909 506.052917,147.251801 
	C509.873779,147.217957 512.430786,148.697632 515.330872,150.964951 
	C523.559509,157.398163 527.919800,165.160767 525.906616,175.809830 
	C525.815308,176.292496 525.827942,176.816925 525.901672,177.305374 
	C527.692627,189.172516 524.901733,199.209702 514.445312,206.233047 
	C511.710052,208.070282 512.163757,210.178604 513.837036,212.580551 
	C516.879272,216.947647 519.755981,221.430069 522.886475,226.189819 
M501.144653,184.355621 
	C501.144653,179.101944 501.144653,173.848251 501.144653,168.462921 
	C488.808472,168.462921 477.257202,168.462921 465.456940,168.462921 
	C465.456940,175.357010 465.456940,181.917862 465.456940,189.081543 
	C476.836914,189.081543 487.927979,189.153473 499.012573,188.919891 
	C499.752319,188.904282 500.443237,186.571686 501.144653,184.355621 
z"/>
<path fill="#E25064" opacity="1.000000" stroke="none" 
	d="
M393.981567,147.323212 
	C403.933899,145.639114 410.895264,149.317017 417.021576,156.507004 
	C420.249634,160.295502 422.065735,163.642044 422.011017,168.733856 
	C421.751678,192.866852 421.895203,217.004196 421.895203,241.588928 
	C413.744965,241.588928 405.859680,241.588928 397.104126,241.588928 
	C397.104126,234.762527 396.864777,227.830994 397.193237,220.926483 
	C397.392670,216.734848 396.019531,215.449127 391.870605,215.597046 
	C383.886719,215.881699 375.879761,215.823273 367.892517,215.578094 
	C364.109558,215.461975 362.970032,216.798920 363.104279,220.488647 
	C363.356964,227.433548 363.177185,234.394180 363.177185,241.696091 
	C354.925293,241.696091 347.204376,241.696091 339.120178,241.696091 
	C339.012878,239.891235 338.834473,238.279449 338.833649,236.667572 
	C338.821899,213.183792 338.891907,189.699738 338.775726,166.216568 
	C338.758881,162.813843 339.970428,160.503723 342.052032,157.843231 
	C348.793030,149.227676 357.088257,145.960052 368.022766,147.144012 
	C376.418396,148.053070 384.991486,147.323288 393.981567,147.323212 
M363.149200,189.247925 
	C362.487061,193.553970 364.162170,195.346603 368.642914,194.933670 
	C372.266663,194.599716 375.944824,194.853195 379.598846,194.851517 
	C385.334320,194.848877 391.069763,194.850815 396.833069,194.850815 
	C396.833069,185.544815 396.833069,177.143036 396.833069,168.532227 
	C385.534058,168.532227 374.545868,168.532227 363.148193,168.532227 
	C363.148193,175.386993 363.148193,181.842148 363.149200,189.247925 
z"/>
<path fill="#E15064" opacity="1.000000" stroke="none" 
	d="
M546.517395,147.469131 
	C572.745361,147.377991 598.525879,147.377991 624.682739,147.377991 
	C624.682739,154.408722 624.682739,160.954376 624.682739,168.168945 
	C621.109985,168.168945 617.663757,168.170105 614.217529,168.168747 
	C600.724426,168.163422 587.230164,168.250290 573.738953,168.086792 
	C570.320496,168.045380 568.868713,168.999252 569.122070,172.584198 
	C569.377563,176.199661 569.178345,179.847229 569.178345,183.988388 
	C571.374207,184.127762 573.129883,184.332840 574.885742,184.335632 
	C587.545959,184.355804 600.207886,184.450836 612.865234,184.254974 
	C616.550903,184.197937 618.000122,185.303391 617.749451,189.071182 
	C617.484680,193.051743 617.472534,197.077667 617.744629,201.056793 
	C617.981995,204.528183 616.481506,205.242889 613.368530,205.211716 
	C600.709656,205.084900 588.045349,205.333130 575.390259,205.080887 
	C570.631470,204.986023 568.911865,206.474655 569.093384,211.351196 
	C569.520691,222.830399 567.764771,220.978668 579.000122,221.080994 
	C591.992371,221.199326 604.986633,221.104416 617.979980,221.102249 
	C620.109741,221.101898 622.239563,221.102203 624.702271,221.102203 
	C624.702271,228.226379 624.702271,234.786896 624.702271,242.039261 
	C622.855652,242.039261 621.088135,242.039185 619.320618,242.039276 
	C600.830078,242.040115 582.338562,241.946518 563.849731,242.126373 
	C560.401611,242.159912 557.957214,241.116608 555.540344,238.788879 
	C544.865967,228.508224 544.815369,228.559326 544.814575,213.551147 
	C544.813599,193.394745 544.782593,173.238220 544.870178,153.082199 
	C544.878174,151.239853 545.651794,149.400833 546.517395,147.469131 
z"/>
<path fill="#E35064" opacity="1.000000" stroke="none" 
	d="
M331.191925,112.140060 
	C331.191071,118.768028 331.191071,124.915428 331.191071,131.582642 
	C329.198883,131.703888 327.598358,131.884857 325.997711,131.886108 
	C304.337555,131.903030 282.676239,131.995804 261.018768,131.752945 
	C258.581909,131.725601 255.845078,130.180359 253.817200,128.605331 
	C250.819000,126.276695 248.610825,122.911224 245.564896,120.668015 
	C240.256134,116.758278 239.134628,111.765999 239.201248,105.467514 
	C239.490250,78.145393 239.328751,50.818512 239.330994,23.493361 
	C239.331146,21.528645 239.331039,19.563929 239.331039,17.282095 
	C249.445236,17.282095 259.001831,17.282095 269.180756,17.282095 
	C269.180756,46.897575 269.180756,76.287987 269.180756,106.264648 
	C290.026093,106.264648 310.262573,106.264648 330.894836,106.264648 
	C331.015015,108.440788 331.103882,110.050140 331.191925,112.140060 
z"/>
<path fill="#E25165" opacity="1.000000" stroke="none" 
	d="
M264.042938,194.000000 
	C264.042664,203.121414 264.042664,211.742844 264.042664,221.026917 
	C273.953949,221.026917 283.377441,221.062515 292.799622,220.967468 
	C293.666382,220.958740 294.859009,220.339447 295.334930,219.626328 
	C299.774475,212.974030 306.490051,213.560318 313.141968,213.813034 
	C315.114471,213.887970 317.092255,213.824585 319.382080,213.824585 
	C320.227051,221.467194 320.728180,227.697601 314.316345,233.987640 
	C308.151855,240.035049 302.362305,242.689682 293.891571,242.218719 
	C281.941071,241.554276 269.921753,242.219116 257.942719,241.903732 
	C255.454163,241.838226 252.778778,240.325974 250.590439,238.875565 
	C240.895584,232.450089 238.362335,223.347122 239.084702,211.915161 
	C240.048737,196.658615 239.185272,181.293167 239.492188,165.982224 
	C239.544662,163.364136 241.119278,160.506393 242.682983,158.236191 
	C249.006149,149.056107 257.740784,146.084213 268.872894,147.107666 
	C279.274048,148.063919 289.834564,147.450729 300.319336,147.244080 
	C303.922333,147.173065 306.789856,147.889572 309.073517,150.802368 
	C310.297333,152.363327 311.671417,153.942001 313.301392,155.025879 
	C321.030060,160.165115 320.607269,167.613953 319.399384,176.004517 
	C313.931824,176.004517 308.440033,176.468719 303.096191,175.781799 
	C300.880188,175.496948 299.116669,172.524673 296.898132,171.188339 
	C294.763916,169.902847 292.338715,168.397858 289.987579,168.301407 
	C281.556793,167.955582 273.103149,168.165833 264.043213,168.165833 
	C264.043213,176.950714 264.043213,185.225357 264.042938,194.000000 
z"/>
<path fill="#E24F63" opacity="1.000000" stroke="none" 
	d="
M354.109253,49.049202 
	C354.109528,45.933731 354.109528,43.310791 354.109528,40.422058 
	C352.326752,40.265396 351.048859,40.107662 349.766602,40.053009 
	C348.443207,39.996601 347.115540,40.040470 345.360657,40.040470 
	C345.360657,32.436222 345.360657,25.064655 345.360657,17.317760 
	C361.116638,17.317760 376.823059,17.317760 392.860504,17.317760 
	C392.860504,24.763193 392.860504,32.008904 392.860504,39.792484 
	C390.143311,39.940689 387.406708,40.089951 384.369507,40.255611 
	C384.369507,63.061073 384.369507,85.604416 384.369507,108.474319 
	C387.164795,108.694870 389.759033,108.899567 393.132324,109.165726 
	C393.132324,115.985481 393.216766,122.743965 393.021332,129.494354 
	C392.997925,130.302597 391.459717,131.743042 390.613007,131.750885 
	C375.659302,131.889648 360.703949,131.851364 345.348541,131.851364 
	C345.348541,124.214363 345.348541,116.984612 345.348541,109.170471 
	C347.948181,108.971428 350.665375,108.763382 354.109009,108.499718 
	C354.109009,88.702232 354.109009,69.121979 354.109253,49.049202 
z"/>
<path fill="#E29C97" opacity="1.000000" stroke="none" 
	d="
M90.306770,75.037041 
	C89.202461,63.928101 90.024445,63.015427 101.171791,63.003654 
	C107.826820,62.996624 114.481873,63.000195 121.136909,62.994740 
	C125.604301,62.991077 127.921188,65.105972 127.894028,69.684845 
	C127.858505,75.674080 128.065308,81.669975 127.842445,87.650887 
	C127.709908,91.207809 129.070755,92.227432 132.481750,92.143250 
	C140.296432,91.950401 148.119751,92.061325 155.939056,92.118431 
	C161.848083,92.161583 162.958572,93.273087 162.997009,99.106758 
	C163.034286,104.763062 162.985550,110.419930 162.534332,116.555779 
	C158.859634,119.671638 159.099014,121.552353 162.906342,123.459244 
	C162.973434,143.187988 163.093796,162.450851 162.913773,181.710892 
	C162.875397,185.816513 164.518463,186.878311 168.190857,186.849030 
	C178.450089,186.767242 188.710846,186.873596 199.044067,187.283569 
	C200.764465,188.125443 202.411804,188.589478 204.059143,189.053513 
	C202.126495,189.657562 200.200974,190.756348 198.260025,190.784302 
	C186.795853,190.949402 175.328110,190.865662 164.023804,190.865662 
	C161.257706,199.715637 161.257751,199.765015 152.303818,199.774002 
	C123.149223,199.803253 93.994576,199.805206 64.839966,199.789581 
	C57.567944,199.785690 56.403305,198.825424 56.241035,192.637741 
	C57.725491,193.296600 58.897224,194.139908 60.393929,195.007996 
	C61.152760,195.008942 61.586620,194.985092 62.386677,195.014664 
	C63.492130,195.083984 64.231384,195.099899 65.249802,195.338715 
	C67.362167,195.403763 69.195374,195.245895 71.483215,195.103088 
	C75.267563,195.054443 78.597267,194.990753 82.298798,194.949951 
	C83.412109,194.982346 84.153595,194.991867 85.369621,195.029938 
	C93.182182,195.011292 100.520210,194.964096 108.214920,194.942413 
	C109.277954,194.976456 109.984306,194.984955 111.030258,195.270386 
	C118.849785,195.328964 126.329712,195.110611 134.189240,194.922607 
	C135.074554,194.947922 135.580231,194.942886 136.403229,194.985535 
	C137.147278,195.029358 137.574020,195.025528 138.468353,195.049438 
	C144.945297,195.021942 150.954681,194.966690 157.297241,194.927780 
	C158.010757,194.276947 158.391068,193.609787 158.817535,192.480103 
	C158.833542,181.029083 158.803375,170.040573 158.849686,158.612671 
	C158.874725,156.098511 158.823273,154.023727 158.816711,151.485931 
	C158.828354,143.701508 158.795135,136.380081 158.831268,128.707611 
	C158.851151,127.884453 158.801697,127.412331 158.805954,126.478851 
	C158.824615,119.696861 158.789551,113.376236 158.831757,106.599205 
	C158.908066,103.697754 159.185181,101.203941 158.769073,98.831711 
	C158.603027,97.885086 156.906342,97.206932 155.452576,96.332947 
	C150.318939,96.282112 145.639160,96.304901 140.557114,96.232986 
	C138.784836,96.199425 137.414825,96.260574 135.716553,96.284714 
	C134.950134,96.279892 134.511948,96.312088 133.673187,96.246284 
	C131.213058,96.785255 129.153519,97.422218 127.063545,98.047852 
	C127.033112,98.036530 127.037743,98.101311 126.819786,98.169968 
	C126.318558,98.420746 126.184555,98.680016 125.952744,99.266945 
	C124.833282,99.853111 123.960892,100.188797 122.757401,100.403679 
	C121.466980,100.721062 120.507645,101.159248 119.241287,101.559326 
	C118.525391,101.560631 118.116524,101.600060 117.369522,101.605362 
	C114.307098,101.102814 111.598618,100.436142 108.854424,100.217300 
	C105.590820,99.957024 102.296532,100.081490 99.010818,99.662163 
	C99.002777,98.530869 98.999451,97.776665 99.445709,96.962662 
	C102.898460,96.834778 105.901634,96.766685 109.330261,96.772232 
	C110.889931,96.715302 112.024147,96.584724 113.526001,96.539375 
	C114.890953,96.572510 115.888260,96.520424 117.285477,96.606125 
	C123.867897,96.764168 124.393951,96.207199 123.144508,90.552689 
	C123.143898,88.758438 123.140678,87.378258 123.380035,85.670898 
	C123.708946,80.535271 123.901527,75.724464 123.796051,70.920212 
	C123.773727,69.903458 122.661713,68.910622 121.670792,67.871590 
	C120.526062,67.865067 119.762321,67.893730 118.674767,67.878502 
	C117.915855,67.821617 117.480766,67.808624 116.795486,67.571548 
	C115.661270,67.349480 114.777252,67.351509 113.437920,67.284576 
	C107.359558,67.262802 101.736504,67.309990 95.767044,67.296776 
	C95.037636,68.181244 94.654617,69.126114 94.206818,70.530548 
	C94.214554,78.963387 94.287071,86.936661 94.245316,95.179077 
	C94.071144,95.633705 94.011238,95.819199 93.668701,95.698883 
	C93.257500,89.804977 93.284157,84.205666 92.881691,78.637375 
	C92.790939,77.381790 91.204620,76.234299 90.306770,75.037041 
z"/>
<path fill="#DD9A96" opacity="1.000000" stroke="none" 
	d="
M55.930492,191.105804 
	C44.112949,191.028915 32.295422,190.950012 20.477863,190.875961 
	C14.459594,190.838257 13.031739,189.550354 13.017149,183.642471 
	C12.968631,163.995300 12.889850,144.346710 13.133186,124.702492 
	C13.160031,122.535233 15.188463,120.392761 16.649109,118.669952 
	C17.043016,120.166634 17.076395,121.232170 17.112082,122.741013 
	C17.101299,142.275436 17.298649,161.370468 16.941397,180.455139 
	C16.839863,185.879227 19.175682,186.943344 23.673183,186.881027 
	C31.972237,186.766022 40.275059,186.915283 48.573780,186.788681 
	C51.016632,186.751419 53.450970,186.156113 55.919952,186.255524 
	C55.943966,188.164932 55.937229,189.635361 55.930492,191.105804 
z"/>
<path fill="#E38F8A" opacity="1.000000" stroke="none" 
	d="
M55.934200,191.333252 
	C55.937229,189.635361 55.943966,188.164932 55.940018,185.803284 
	C55.939934,165.530975 55.998810,146.149536 55.874046,126.769279 
	C55.863499,125.130936 54.623730,123.500504 53.647526,121.597717 
	C45.285015,121.220337 37.229794,121.029068 29.175097,121.048981 
	C26.460821,121.055695 23.747873,121.598503 20.641441,121.944046 
	C19.202301,122.093765 18.156036,122.195732 17.109772,122.297699 
	C17.076395,121.232170 17.043016,120.166634 17.015884,118.706566 
	C18.095461,118.226715 19.168789,118.141411 20.954632,118.364639 
	C29.723688,118.780418 37.780464,118.971123 45.836636,118.948280 
	C48.547726,118.940598 51.257278,118.390259 53.967529,118.087936 
	C54.604801,117.593697 55.242069,117.099457 56.251869,115.992355 
	C56.747730,110.339943 56.732182,105.290756 57.080956,100.266869 
	C57.182545,98.803574 58.324280,97.412498 58.995232,95.994781 
	C59.001232,96.001251 59.011345,96.011902 59.009026,96.477783 
	C59.258091,102.273064 59.509483,107.602470 59.817856,113.355927 
	C59.848537,115.203079 59.822239,116.626190 59.576401,118.271622 
	C59.503284,119.646744 59.649708,120.799530 59.851776,122.420746 
	C59.866856,132.945618 59.826283,143.002075 59.547142,153.345306 
	C59.468979,156.068497 59.629383,158.504944 59.848518,161.410156 
	C59.992149,172.238815 60.077057,182.598694 60.107391,193.293274 
	C60.058205,194.079727 60.063583,194.531464 60.068962,194.983215 
	C58.897224,194.139908 57.725491,193.296600 56.288979,192.230347 
	C56.024204,192.007416 55.937908,191.560715 55.934200,191.333252 
z"/>
<path fill="#E29792" opacity="1.000000" stroke="none" 
	d="
M204.044052,189.041168 
	C202.411804,188.589478 200.764465,188.125443 199.270706,187.089478 
	C200.262909,186.018265 201.101547,185.519012 202.240173,184.744873 
	C202.375916,181.318924 202.211670,178.167877 202.002243,174.598740 
	C201.988876,172.780777 202.020691,171.380905 202.336594,169.680283 
	C202.746094,160.643890 202.935486,151.908371 202.949570,143.172562 
	C202.952866,141.121048 202.363831,139.068573 202.004913,136.578323 
	C201.992767,134.087326 202.023026,132.034531 202.317535,129.729401 
	C202.373734,127.646866 202.165710,125.816666 201.923279,123.781601 
	C201.888870,123.576752 201.942963,123.164848 201.861877,122.908325 
	C201.495514,122.449677 201.210266,122.247551 200.963318,122.044525 
	C201.001633,122.043617 200.947525,122.097916 200.885681,121.915833 
	C200.549255,121.825409 200.274673,121.917084 199.666534,122.029114 
	C198.889664,122.012703 198.446350,121.975945 197.696381,121.657516 
	C187.485764,121.375847 177.581802,121.375847 167.677841,121.375847 
	C167.673431,120.582764 167.669022,119.789673 167.664612,118.996590 
	C169.519608,118.996590 171.379608,119.084206 173.228561,118.978432 
	C177.136398,118.754868 181.038483,118.430244 184.942917,118.147064 
	C189.990845,118.135078 195.038788,118.123085 200.626770,118.528046 
	C202.170959,119.291794 203.175079,119.638603 204.179199,119.985413 
	C204.501602,120.435219 204.823990,120.885025 204.960938,121.745186 
	C205.087402,122.771233 205.399307,123.386917 205.711212,124.002609 
	C205.787033,143.712692 205.862839,163.422760 205.634659,183.851654 
	C205.267639,185.496918 205.204605,186.423370 205.141602,187.349838 
	C205.141602,187.349838 205.079391,187.727814 204.773560,187.996185 
	C204.229950,188.475327 204.084366,188.737396 204.030991,189.050751 
	C204.030991,189.050751 204.028961,189.028824 204.044052,189.041168 
z"/>
<path fill="#E38F8A" opacity="1.000000" stroke="none" 
	d="
M90.214859,75.494156 
	C91.204620,76.234299 92.790939,77.381790 92.881691,78.637375 
	C93.284157,84.205666 93.257500,89.804977 93.851303,95.949173 
	C94.902817,96.559700 95.489105,96.614136 96.436485,96.739861 
	C97.530418,96.881592 98.263275,96.952019 98.996124,97.022453 
	C98.999451,97.776665 99.002777,98.530869 98.982910,99.852066 
	C98.959732,100.419052 98.950348,100.803337 98.633141,100.786575 
	C97.892975,100.787109 97.470024,100.804405 96.771469,100.602325 
	C95.315605,100.322548 94.135345,100.262138 92.722710,100.005760 
	C91.927940,99.227127 91.365547,98.644447 90.811600,97.748260 
	C90.215179,96.943642 89.610313,96.452538 89.036324,95.617416 
	C89.371460,94.174583 89.675720,93.075768 89.979980,91.976959 
	C90.027626,86.635063 90.075279,81.293175 90.214859,75.494156 
z"/>
<path fill="#E29C97" opacity="1.000000" stroke="none" 
	d="
M184.486008,118.064453 
	C181.038483,118.430244 177.136398,118.754868 173.228561,118.978432 
	C171.379608,119.084206 169.519608,118.996590 167.664612,118.996590 
	C167.669022,119.789673 167.673431,120.582764 167.677841,121.375847 
	C177.581802,121.375847 187.485764,121.375847 197.230194,121.714508 
	C186.046402,122.016190 175.022156,121.979195 163.999084,121.551956 
	C163.999802,120.122337 163.999344,119.082954 163.998886,118.043579 
	C170.675629,118.023003 177.352356,118.002426 184.486008,118.064453 
z"/>
<path fill="#E29C97" opacity="1.000000" stroke="none" 
	d="
M89.519958,92.005096 
	C89.675720,93.075768 89.371460,94.174583 88.685532,95.575806 
	C85.220177,96.026932 82.136505,96.175644 78.672432,96.275352 
	C77.528801,96.152931 76.765556,96.079506 76.001625,95.601791 
	C75.978912,94.385918 75.956886,93.574326 75.934868,92.762741 
	C80.309891,92.519569 84.684921,92.276398 89.519958,92.005096 
z"/>
<path fill="#E29C97" opacity="1.000000" stroke="none" 
	d="
M58.989227,95.988312 
	C58.324280,97.412498 57.182545,98.803574 57.080956,100.266869 
	C56.732182,105.290756 56.747730,110.339943 56.342110,115.681053 
	C56.004452,110.352814 55.894501,104.722878 55.908939,99.093246 
	C55.923622,93.368362 57.106220,92.217972 62.977886,92.120796 
	C65.121315,92.085320 67.268311,92.264771 69.488449,92.894630 
	C67.469002,93.626472 65.331169,93.611359 63.295033,94.058929 
	C61.791065,94.389526 60.419682,95.323288 58.989227,95.988312 
z"/>
<path fill="#E38F8A" opacity="1.000000" stroke="none" 
	d="
M58.995228,95.994781 
	C60.419682,95.323288 61.791065,94.389526 63.295033,94.058929 
	C65.331169,93.611359 67.469002,93.626472 69.835449,93.112312 
	C71.772377,92.766914 73.437057,92.752289 75.518311,92.750198 
	C75.956886,93.574326 75.978912,94.385918 75.629074,95.645447 
	C74.508598,96.068993 73.759972,96.044594 72.800941,95.756699 
	C71.394760,95.665718 70.198982,95.838242 69.042313,96.086884 
	C69.081421,96.163010 69.113968,96.331047 68.710983,96.222153 
	C67.202515,96.047638 66.097031,95.982018 64.841148,95.708771 
	C64.130379,95.637611 63.570015,95.774078 62.655762,95.953644 
	C61.592758,96.034012 60.883652,96.071274 59.884163,96.079269 
	C59.399639,96.037315 59.205494,96.024605 59.011345,96.011902 
	C59.011345,96.011902 59.001232,96.001251 58.995228,95.994781 
z"/>
<path fill="#DD9A96" opacity="1.000000" stroke="none" 
	d="
M53.507122,118.012772 
	C51.257278,118.390259 48.547726,118.940598 45.836636,118.948280 
	C37.780464,118.971123 29.723688,118.780418 21.357750,118.408981 
	C31.714472,118.075722 42.380592,118.006660 53.507122,118.012772 
z"/>
<path fill="#E29792" opacity="1.000000" stroke="none" 
	d="
M163.778534,117.906998 
	C163.999344,119.082954 163.999802,120.122337 163.781586,121.695831 
	C163.326050,122.484093 163.089203,122.738228 162.852356,122.992355 
	C159.099014,121.552353 158.859634,119.671638 162.475250,117.021515 
	C163.090347,117.262161 163.324265,117.516289 163.778534,117.906998 
z"/>
<path fill="#E29C97" opacity="1.000000" stroke="none" 
	d="
M204.027771,119.691483 
	C203.175079,119.638603 202.170959,119.291794 201.084137,118.626312 
	C201.959747,118.670944 202.918030,119.034256 204.027771,119.691483 
z"/>
<path fill="#E29C97" opacity="1.000000" stroke="none" 
	d="
M205.794220,123.723495 
	C205.399307,123.386917 205.087402,122.771233 205.037445,122.013344 
	C205.492004,122.395561 205.684616,122.919968 205.794220,123.723495 
z"/>
<path fill="#E29C97" opacity="1.000000" stroke="none" 
	d="
M205.380463,187.085480 
	C205.204605,186.423370 205.267639,185.496918 205.565369,184.320023 
	C205.739838,184.986771 205.679581,185.903931 205.380463,187.085480 
z"/>
<path fill="#E29C97" opacity="1.000000" stroke="none" 
	d="
M204.221710,188.929474 
	C204.084366,188.737396 204.229950,188.475327 204.663635,188.153046 
	C204.790970,188.344009 204.641937,188.599564 204.221710,188.929474 
z"/>
<path fill="#FEF6F7" opacity="1.000000" stroke="none" 
	d="
M501.150757,184.836182 
	C500.443237,186.571686 499.752319,188.904282 499.012573,188.919891 
	C487.927979,189.153473 476.836914,189.081543 465.456940,189.081543 
	C465.456940,181.917862 465.456940,175.357010 465.456940,168.462921 
	C477.257202,168.462921 488.808472,168.462921 501.144653,168.462921 
	C501.144653,173.848251 501.144653,179.101944 501.150757,184.836182 
z"/>
<path fill="#FEF6F7" opacity="1.000000" stroke="none" 
	d="
M363.148682,188.772614 
	C363.148193,181.842148 363.148193,175.386993 363.148193,168.532227 
	C374.545868,168.532227 385.534058,168.532227 396.833069,168.532227 
	C396.833069,177.143036 396.833069,185.544815 396.833069,194.850815 
	C391.069763,194.850815 385.334320,194.848877 379.598846,194.851517 
	C375.944824,194.853195 372.266663,194.599716 368.642914,194.933670 
	C364.162170,195.346603 362.487061,193.553970 363.148682,188.772614 
z"/>
<path fill="#FEFCFA" opacity="1.000000" stroke="none" 
	d="
M73.011345,96.020195 
	C73.759972,96.044594 74.508598,96.068993 75.629776,96.049728 
	C76.765556,96.079506 77.528801,96.152931 78.980392,96.492050 
	C83.380211,97.192429 87.091682,97.627106 90.803154,98.061775 
	C91.365547,98.644447 91.927940,99.227127 92.800339,100.331718 
	C94.422577,100.842995 95.734825,100.832344 97.047066,100.821701 
	C97.470024,100.804405 97.892975,100.787109 98.652985,101.202446 
	C98.982628,102.736275 98.975204,103.837471 98.948639,105.369522 
	C98.886284,107.515999 98.843071,109.231628 98.528748,111.009125 
	C98.431602,111.733109 98.605568,112.395226 98.823822,113.515564 
	C98.886139,116.567146 99.067818,119.172417 98.880058,121.750786 
	C98.653748,124.858475 99.700996,126.400070 103.247032,126.223846 
	C106.707664,126.185982 109.894417,125.844620 113.432098,125.424377 
	C114.491959,125.413612 115.200882,125.481720 116.009804,125.787964 
	C116.758331,125.716209 117.406868,125.406311 118.037872,125.065910 
	C118.020348,125.035416 118.089554,125.047989 118.462830,124.942505 
	C120.373322,121.763969 121.176506,118.735016 118.247398,115.536835 
	C118.227570,114.099045 118.261101,113.051537 118.573868,111.787704 
	C120.157547,109.187164 121.496605,106.799026 118.073906,104.947128 
	C118.042587,104.949493 118.052994,104.886276 118.040207,104.481918 
	C117.920822,103.264877 117.814240,102.452179 117.707649,101.639488 
	C118.116524,101.600060 118.525391,101.560631 119.596893,101.673637 
	C121.202507,101.392204 122.145500,100.958344 123.088493,100.524483 
	C123.960892,100.188797 124.833282,99.853111 126.136528,99.161087 
	C126.793564,98.616699 126.950348,98.382225 127.037743,98.101311 
	C127.037743,98.101311 127.033112,98.036530 127.471970,98.035172 
	C129.965134,97.470627 132.019455,96.907455 134.073776,96.344284 
	C134.511948,96.312088 134.950134,96.279892 135.973206,96.485390 
	C138.025208,96.591286 139.492279,96.459488 140.959366,96.327690 
	C145.639160,96.304901 150.318939,96.282112 155.554565,96.693069 
	C156.413452,99.067238 156.584549,101.040939 157.062897,102.937141 
	C157.422211,104.361565 158.176178,105.686432 158.754471,107.055611 
	C158.789551,113.376236 158.824615,119.696861 158.541245,126.543655 
	C158.402512,127.732773 158.582214,128.395706 158.761932,129.058655 
	C158.795135,136.380081 158.828354,143.701508 158.470703,151.599823 
	C156.522980,154.648804 155.951767,157.021500 158.773193,159.052063 
	C158.803375,170.040573 158.833542,181.029083 158.529755,192.546967 
	C157.785217,193.688034 157.374634,194.299728 156.964050,194.911438 
	C150.954681,194.966690 144.945297,195.021942 138.417969,194.631683 
	C137.607132,186.164383 137.363678,178.140335 136.993881,170.122101 
	C136.868423,167.401672 136.424072,164.695938 136.098679,161.959290 
	C136.071930,161.935074 136.067169,161.863052 136.000488,161.552765 
	C134.928162,161.383713 133.922531,161.524933 132.611938,161.719101 
	C131.896606,161.743423 131.486221,161.714798 130.951218,161.349884 
	C128.002426,161.001328 125.178246,160.979568 122.354065,160.978455 
	C111.000137,160.973938 99.646019,160.942688 88.292496,161.010056 
	C86.535622,161.020477 84.781494,161.493591 82.726746,162.070526 
	C82.260582,173.234558 82.093781,184.080811 81.926971,194.927063 
	C78.597267,194.990753 75.267563,195.054443 71.241081,194.813110 
	C68.686417,194.710663 66.828522,194.913239 64.970634,195.115799 
	C64.231384,195.099899 63.492130,195.083984 62.347725,194.708496 
	C61.349033,193.885468 60.755497,193.422012 60.161961,192.958557 
	C60.077057,182.598694 59.992149,172.238815 59.934410,160.980072 
	C59.902950,157.740311 59.844330,155.399414 59.785709,153.058533 
	C59.826283,143.002075 59.866856,132.945618 59.936081,122.036118 
	C59.908466,120.138474 59.852203,119.093887 59.795940,118.049294 
	C59.822239,116.626190 59.848537,115.203079 59.910423,112.905075 
	C60.042633,107.374237 60.139259,102.718307 60.585693,97.991547 
	C62.476856,97.851936 64.046310,97.938324 65.550758,97.665802 
	C66.778801,97.443359 67.929161,96.792152 69.113968,96.331047 
	C69.113968,96.331047 69.081421,96.163010 69.376022,96.155807 
	C70.119827,96.215332 70.569038,96.282059 71.185913,96.510178 
	C71.907349,96.565277 72.461128,96.458977 73.037018,96.269302 
	C73.059120,96.185936 73.011345,96.020195 73.011345,96.020195 
M99.310730,150.616211 
	C100.515862,150.855835 101.720985,151.095459 103.210732,152.027832 
	C107.845657,152.245438 112.479851,152.493073 117.117317,152.607697 
	C117.402328,152.614746 117.713303,151.571320 118.154503,150.543762 
	C118.154503,150.543762 118.303970,150.073044 118.977806,149.821304 
	C118.757492,147.521225 118.537178,145.221146 118.211533,142.118057 
	C118.246109,140.771454 118.280685,139.424850 118.999046,137.807098 
	C120.015419,135.024811 121.786903,132.135513 116.976982,129.995255 
	C110.949898,130.327179 104.922813,130.659119 98.595482,131.169937 
	C98.536507,131.269272 98.404198,131.403763 98.431900,131.461594 
	C98.526894,131.659866 98.677986,131.831238 98.884666,132.941238 
	C98.861412,137.945816 98.838158,142.950394 98.268799,148.079285 
	C98.455292,148.735657 98.641777,149.392014 99.310730,150.616211 
M82.253395,125.890831 
	C84.082298,125.012932 87.413841,124.253929 87.494247,123.237694 
	C87.985878,117.024193 87.740120,110.752342 87.740120,104.102371 
	C81.759346,104.102371 76.459671,103.917473 71.192657,104.249985 
	C70.066772,104.321068 68.244736,106.198730 68.143173,107.365913 
	C67.769920,111.655579 68.293289,116.024872 67.897812,120.310547 
	C67.457199,125.085335 69.335907,126.536545 73.835304,125.945953 
	C76.286209,125.624245 78.814293,125.890442 82.253395,125.890831 
M68.018036,137.572968 
	C67.979294,151.934967 67.979294,151.934906 82.301025,151.794922 
	C82.632423,151.791672 82.967949,151.761169 83.294708,151.800400 
	C86.587280,152.195633 87.805191,150.471359 87.780716,147.447250 
	C87.740753,142.509552 87.888031,137.558533 87.521866,132.645493 
	C87.450607,131.689377 85.463402,130.254700 84.244781,130.125305 
	C80.967987,129.777390 77.628899,130.013733 74.314552,130.022461 
	C67.995949,130.039108 67.995949,130.040359 68.018036,137.572968 
M130.254837,125.025375 
	C135.309769,125.313881 140.369217,125.541344 145.417892,125.914543 
	C148.298843,126.127502 149.205246,124.843163 149.125488,122.114746 
	C148.989853,117.474403 148.970657,112.823235 149.129822,108.184402 
	C149.229309,105.285423 148.374832,103.893837 145.221466,104.060059 
	C141.417114,104.260574 137.586426,104.256630 133.781540,104.061142 
	C130.609756,103.898186 129.792343,105.340759 129.878952,108.220352 
	C130.038437,113.522980 129.954788,118.832909 130.254837,125.025375 
M129.908020,137.575089 
	C129.908020,142.176208 129.908020,146.777328 129.908020,151.153854 
	C133.997635,151.153854 137.296707,151.182251 140.595139,151.148544 
	C150.653030,151.045776 148.951523,152.281616 149.055573,142.689957 
	C149.193207,130.003342 149.110703,130.002426 136.327393,130.019363 
	C129.948456,130.027817 129.948456,130.027832 129.908020,137.575089 
z"/>
<path fill="#FEF9F7" opacity="1.000000" stroke="none" 
	d="
M162.906342,123.459244 
	C163.089203,122.738228 163.326050,122.484093 163.780411,122.086075 
	C175.022156,121.979195 186.046402,122.016190 197.536850,121.996178 
	C198.446350,121.975945 198.889664,122.012703 199.900146,122.085800 
	C200.467331,122.122124 200.947525,122.097916 200.947525,122.097916 
	C200.947525,122.097916 201.001633,122.043617 201.085541,122.270256 
	C201.427292,122.719543 201.685120,122.942200 201.942963,123.164856 
	C201.942963,123.164848 201.888870,123.576752 201.888489,124.210121 
	C201.943161,126.556244 201.998230,128.268997 202.053299,129.981750 
	C202.023026,132.034531 201.992767,134.087326 201.952789,137.042862 
	C201.979553,148.624100 202.016022,159.302567 202.052505,169.981049 
	C202.020691,171.380905 201.988876,172.780777 201.951981,175.048950 
	C201.944672,178.951431 201.942429,181.985596 201.940186,185.019775 
	C201.101547,185.519012 200.262909,186.018265 199.197632,186.711609 
	C188.710846,186.873596 178.450089,186.767242 168.190857,186.849030 
	C164.518463,186.878311 162.875397,185.816513 162.913773,181.710892 
	C163.093796,162.450851 162.973434,143.187988 162.906342,123.459244 
M191.516571,150.510941 
	C191.643784,144.565552 191.866806,138.618973 191.794220,132.676025 
	C191.783417,131.791763 190.390244,130.178162 189.621094,130.168747 
	C184.032181,130.100449 178.439301,130.356934 172.847672,130.510712 
	C172.590958,134.750473 172.331329,138.990067 172.081436,143.230225 
	C172.052216,143.725708 172.149811,144.237228 172.064835,144.719513 
	C171.222763,149.499664 172.963852,151.931839 178.236313,151.570526 
	C178.236313,151.570526 178.620819,151.627472 178.620819,151.627472 
	C178.620819,151.627472 178.945938,151.389908 179.615372,151.294174 
	C180.062943,151.332809 180.510498,151.371429 181.128418,151.969254 
	C182.099823,151.792679 183.071243,151.616119 184.802628,151.293228 
	C185.573288,151.326584 186.343948,151.359940 187.595596,151.755280 
	C188.718552,151.557816 189.841492,151.360352 191.516571,150.510941 
M191.029831,156.306488 
	C185.733078,156.178848 180.433548,155.922150 175.141968,156.035431 
	C174.116943,156.057388 172.268417,157.505844 172.251205,158.326675 
	C172.126648,164.273438 172.374695,170.228027 172.504791,176.180130 
	C177.891098,176.480438 183.278549,176.963043 188.662720,176.928711 
	C189.752182,176.921768 191.716583,174.997650 191.762665,173.894135 
	C191.997467,168.270248 191.734756,162.625595 191.029831,156.306488 
z"/>
<path fill="#FFF9F8" opacity="1.000000" stroke="none" 
	d="
M133.809631,194.892273 
	C126.329712,195.110611 118.849785,195.328964 111.107376,194.807373 
	C110.856750,185.758942 111.026596,177.446350 110.809341,169.143875 
	C110.710648,165.372208 112.252617,164.062439 115.760864,164.135727 
	C120.079536,164.225983 124.401543,164.145264 128.722000,164.164627 
	C132.224014,164.180328 134.104858,165.338867 133.942535,169.471527 
	C133.610138,177.933792 133.821930,186.417435 133.809631,194.892273 
z"/>
<path fill="#FEFAF9" opacity="1.000000" stroke="none" 
	d="
M107.858231,194.916901 
	C100.520210,194.964096 93.182182,195.011292 85.385620,194.561798 
	C84.927071,184.505096 84.927071,174.945068 84.927071,164.266953 
	C91.779297,164.266953 97.982048,164.148361 104.176720,164.320480 
	C106.981049,164.398392 108.002228,166.245712 107.957222,169.067612 
	C107.819847,177.682373 107.876854,186.300232 107.858231,194.916901 
z"/>
<path fill="#D8A29F" opacity="1.000000" stroke="none" 
	d="
M108.214912,194.942413 
	C107.876854,186.300232 107.819847,177.682373 107.957222,169.067612 
	C108.002228,166.245712 106.981049,164.398392 104.176720,164.320480 
	C97.982048,164.148361 91.779297,164.266953 84.927071,164.266953 
	C84.927071,174.945068 84.927071,184.505096 84.911072,194.533264 
	C84.153595,194.991867 83.412109,194.982346 82.298798,194.949951 
	C82.093781,184.080811 82.260582,173.234558 83.187607,162.134750 
	C99.657166,161.816177 115.366501,161.751175 131.075836,161.686172 
	C131.486221,161.714798 131.896606,161.743423 132.998993,161.809937 
	C134.483063,161.852905 135.275116,161.857971 136.067169,161.863037 
	C136.067169,161.863052 136.071930,161.935074 136.075378,162.428253 
	C136.081192,173.593582 136.083557,184.265732 136.085922,194.937866 
	C135.580231,194.942886 135.074554,194.947922 134.189255,194.922607 
	C133.821930,186.417435 133.610138,177.933792 133.942535,169.471527 
	C134.104858,165.338867 132.224014,164.180328 128.722000,164.164627 
	C124.401543,164.145264 120.079536,164.225983 115.760864,164.135727 
	C112.252617,164.062439 110.710648,165.372208 110.809341,169.143875 
	C111.026596,177.446350 110.856750,185.758942 110.767776,194.530426 
	C109.984306,194.984955 109.277954,194.976456 108.214912,194.942413 
z"/>
<path fill="#FDF7F4" opacity="1.000000" stroke="none" 
	d="
M99.445709,96.962662 
	C98.263275,96.952019 97.530418,96.881592 96.373886,96.481628 
	C95.419998,95.738045 94.889793,95.323990 94.359589,94.909935 
	C94.287071,86.936661 94.214554,78.963387 94.500229,70.449524 
	C95.276764,69.058342 95.695107,68.207748 96.113449,67.357162 
	C101.736504,67.309990 107.359558,67.262802 113.464188,67.604225 
	C113.970230,68.641708 113.994698,69.290581 113.905960,70.173569 
	C113.516953,70.609108 113.241142,70.810524 112.533279,71.009392 
	C110.081055,71.016464 108.060860,71.026093 105.658600,71.092896 
	C104.827438,73.357941 104.378349,75.565804 103.539810,77.834747 
	C102.100021,77.892380 101.049683,77.888939 99.891609,77.735664 
	C99.540901,77.750954 99.297935,77.916077 98.958359,78.438736 
	C98.083366,82.363914 97.362549,85.246643 102.804390,86.280396 
	C105.217148,86.738731 106.937859,90.828430 108.985817,93.258698 
	C109.073868,93.363174 109.293991,93.356369 109.340950,93.806480 
	C109.121140,95.040573 109.012970,95.869576 108.904800,96.698586 
	C105.901634,96.766685 102.898460,96.834778 99.445709,96.962662 
z"/>
<path fill="#FEFBF7" opacity="1.000000" stroke="none" 
	d="
M123.137451,85.998070 
	C123.140678,87.378258 123.143898,88.758438 122.858643,90.755753 
	C120.675301,93.071365 118.780441,94.769859 116.885574,96.468353 
	C115.888260,96.520424 114.890953,96.572510 113.455170,96.165154 
	C112.835190,94.951302 112.653671,94.196884 112.618500,93.090454 
	C112.969490,91.189880 113.174133,89.641335 113.648865,88.010681 
	C114.290428,87.316483 114.661911,86.704384 115.428169,86.048004 
	C116.882172,85.997353 117.941399,85.990982 119.412971,85.998108 
	C120.929359,86.007095 122.033409,86.002586 123.137451,85.998070 
z"/>
<path fill="#FDE5E1" opacity="1.000000" stroke="none" 
	d="
M98.967789,104.938667 
	C98.975204,103.837471 98.982628,102.736275 98.970200,101.219208 
	C98.950348,100.803337 98.959732,100.419052 98.987640,100.229149 
	C102.296532,100.081490 105.590820,99.957024 108.854424,100.217300 
	C111.598618,100.436142 114.307098,101.102814 117.369522,101.605362 
	C117.814240,102.452179 117.920822,103.264877 117.566528,104.479492 
	C111.059700,104.900505 105.013741,104.919586 98.967789,104.938667 
z"/>
<path fill="#FDFCFC" opacity="1.000000" stroke="none" 
	d="
M112.965332,71.011940 
	C113.241142,70.810524 113.516953,70.609108 114.267578,70.179024 
	C115.466797,69.946960 116.191200,69.943565 117.252213,69.920311 
	C118.058731,69.241104 118.528656,68.581741 118.998581,67.922379 
	C119.762321,67.893730 120.526062,67.865067 121.655685,68.333702 
	C121.049637,71.885117 124.307922,75.944366 119.416069,78.101685 
	C117.710739,77.945335 116.394386,77.846809 115.017944,77.478821 
	C114.422318,76.773903 113.886765,76.338448 113.289055,75.499123 
	C113.139709,73.734146 113.052521,72.373047 112.965332,71.011940 
z"/>
<path fill="#FDE0DB" opacity="1.000000" stroke="none" 
	d="
M119.805038,78.159500 
	C124.307922,75.944366 121.049637,71.885117 122.036667,68.368881 
	C122.661713,68.910622 123.773727,69.903458 123.796051,70.920212 
	C123.901527,75.724464 123.708946,80.535271 123.380035,85.670898 
	C122.033409,86.002586 120.929359,86.007095 119.569344,85.637093 
	C119.477264,82.894890 119.641151,80.527191 119.805038,78.159500 
z"/>
<path fill="#FDE5E1" opacity="1.000000" stroke="none" 
	d="
M136.403229,194.985535 
	C136.083557,184.265732 136.081192,173.593582 136.102112,162.452469 
	C136.424072,164.695938 136.868423,167.401672 136.993881,170.122101 
	C137.363678,178.140335 137.607132,186.164383 137.950394,194.603912 
	C137.574020,195.025528 137.147278,195.029358 136.403229,194.985535 
z"/>
<path fill="#FDE5E1" opacity="1.000000" stroke="none" 
	d="
M158.831757,106.599205 
	C158.176178,105.686432 157.422211,104.361565 157.062897,102.937141 
	C156.584549,101.040939 156.413452,99.067238 156.008408,96.766693 
	C156.906342,97.206932 158.603027,97.885086 158.769073,98.831711 
	C159.185181,101.203941 158.908066,103.697754 158.831757,106.599205 
z"/>
<path fill="#FDE0DB" opacity="1.000000" stroke="none" 
	d="
M117.285477,96.606125 
	C118.780441,94.769859 120.675301,93.071365 122.856033,91.169815 
	C124.393951,96.207199 123.867897,96.764168 117.285477,96.606125 
z"/>
<path fill="#FDE5E1" opacity="1.000000" stroke="none" 
	d="
M158.849701,158.612671 
	C155.951767,157.021500 156.522980,154.648804 158.425842,152.062820 
	C158.823273,154.023727 158.874725,156.098511 158.849701,158.612671 
z"/>
<path fill="#FDE5E1" opacity="1.000000" stroke="none" 
	d="
M133.673187,96.246292 
	C132.019455,96.907455 129.965134,97.470627 127.502396,98.046494 
	C129.153519,97.422218 131.213058,96.785255 133.673187,96.246292 
z"/>
<path fill="#FDE0DB" opacity="1.000000" stroke="none" 
	d="
M112.472153,93.442474 
	C112.653671,94.196884 112.835190,94.951302 113.087532,96.079933 
	C112.024147,96.584724 110.889931,96.715302 109.330261,96.772232 
	C109.012970,95.869576 109.121140,95.040573 109.638382,93.852844 
	C110.855690,93.476898 111.663925,93.459686 112.472153,93.442474 
z"/>
<path fill="#FDE5E1" opacity="1.000000" stroke="none" 
	d="
M65.249802,195.338715 
	C66.828522,194.913239 68.686417,194.710663 70.786438,194.798065 
	C69.195374,195.245895 67.362167,195.403763 65.249802,195.338715 
z"/>
<path fill="#FDE0DB" opacity="1.000000" stroke="none" 
	d="
M116.915611,69.940170 
	C116.191200,69.943565 115.466797,69.946960 114.380775,69.944916 
	C113.994698,69.290581 113.970230,68.641708 113.919495,67.673180 
	C114.777252,67.351509 115.661270,67.349480 116.780403,67.931808 
	C116.982216,68.990829 116.948914,69.465500 116.915611,69.940170 
z"/>
<path fill="#FDE0DB" opacity="1.000000" stroke="none" 
	d="
M95.767044,67.296768 
	C95.695107,68.207748 95.276764,69.058342 94.565010,69.989960 
	C94.654617,69.126114 95.037636,68.181244 95.767044,67.296768 
z"/>
<path fill="#FDE5E1" opacity="1.000000" stroke="none" 
	d="
M122.757401,100.403679 
	C122.145500,100.958344 121.202507,101.392204 119.903915,101.711754 
	C120.507645,101.159248 121.466980,100.721062 122.757401,100.403679 
z"/>
<path fill="#FDE5E1" opacity="1.000000" stroke="none" 
	d="
M140.557114,96.232986 
	C139.492279,96.459488 138.025208,96.591286 136.301453,96.522408 
	C137.414825,96.260574 138.784836,96.199425 140.557114,96.232986 
z"/>
<path fill="#FDE5E1" opacity="1.000000" stroke="none" 
	d="
M60.107391,193.293274 
	C60.755497,193.422012 61.349033,193.885468 61.981525,194.655090 
	C61.586620,194.985092 61.152760,195.008942 60.393932,195.007996 
	C60.063583,194.531464 60.058205,194.079727 60.107391,193.293274 
z"/>
<path fill="#FDE5E1" opacity="1.000000" stroke="none" 
	d="
M157.297241,194.927780 
	C157.374634,194.299728 157.785217,193.688034 158.483582,193.009460 
	C158.391068,193.609787 158.010757,194.276947 157.297241,194.927780 
z"/>
<path fill="#FDE5E1" opacity="1.000000" stroke="none" 
	d="
M158.831268,128.707611 
	C158.582214,128.395706 158.402512,127.732773 158.487518,127.005020 
	C158.801697,127.412331 158.851151,127.884453 158.831268,128.707611 
z"/>
<path fill="#FDE0DB" opacity="1.000000" stroke="none" 
	d="
M94.245316,95.179077 
	C94.889793,95.323990 95.419998,95.738045 96.012802,96.410332 
	C95.489105,96.614136 94.902817,96.559700 94.133926,96.254990 
	C94.011238,95.819199 94.071144,95.633705 94.245316,95.179077 
z"/>
<path fill="#FDF7F4" opacity="1.000000" stroke="none" 
	d="
M117.252213,69.920319 
	C116.948914,69.465500 116.982216,68.990829 117.030594,68.155899 
	C117.480766,67.808624 117.915855,67.821617 118.674759,67.878494 
	C118.528656,68.581741 118.058731,69.241104 117.252213,69.920319 
z"/>
<path fill="#FDE5E1" opacity="1.000000" stroke="none" 
	d="
M126.819786,98.169968 
	C126.950348,98.382225 126.793564,98.616699 126.383591,98.910599 
	C126.184555,98.680016 126.318558,98.420746 126.819786,98.169968 
z"/>
<path fill="#FEF7F5" opacity="1.000000" stroke="none" 
	d="
M17.112082,122.741013 
	C18.156036,122.195732 19.202301,122.093765 21.102539,122.009720 
	C32.622681,121.973885 43.288849,121.920135 53.955021,121.866394 
	C54.623730,123.500504 55.863499,125.130936 55.874046,126.769279 
	C55.998810,146.149536 55.939934,165.530975 55.909267,185.364319 
	C53.450970,186.156113 51.016632,186.751419 48.573780,186.788681 
	C40.275059,186.915283 31.972237,186.766022 23.673183,186.881027 
	C19.175682,186.943344 16.839863,185.879227 16.941397,180.455139 
	C17.298649,161.370468 17.101299,142.275436 17.112082,122.741013 
M46.057739,138.543076 
	C46.057739,135.812195 46.057739,133.081314 46.057739,130.035767 
	C40.133099,130.035767 35.147980,129.841034 30.199158,130.178497 
	C29.024212,130.258621 27.090912,132.060562 27.013136,133.175583 
	C26.667021,138.137726 26.732052,143.144882 26.982428,148.118958 
	C27.034298,149.149429 28.469303,150.924683 29.334730,150.966949 
	C34.738377,151.230911 40.161301,151.100174 46.059700,151.100174 
	C46.059700,146.769241 46.059700,143.146622 46.057739,138.543076 
M46.003750,157.804779 
	C45.676708,157.268311 45.361641,156.272812 45.020844,156.263931 
	C39.567966,156.121750 34.110527,156.041779 28.658190,156.150864 
	C28.057322,156.162888 26.986135,157.411026 26.971327,158.103775 
	C26.838633,164.310852 26.893904,170.521927 26.893904,176.767532 
	C33.680210,176.767532 39.572693,176.767532 45.329239,176.767532 
	C45.621952,176.199844 45.892063,175.918243 45.895618,175.633316 
	C45.965839,170.005585 46.005161,164.377457 46.003750,157.804779 
z"/>
<path fill="#DA9897" opacity="1.000000" stroke="none" 
	d="
M53.647526,121.597717 
	C43.288849,121.920135 32.622681,121.973885 21.495415,121.961967 
	C23.747873,121.598503 26.460821,121.055695 29.175097,121.048981 
	C37.229794,121.029068 45.285015,121.220337 53.647526,121.597717 
z"/>
<path fill="#E29C97" opacity="1.000000" stroke="none" 
	d="
M60.235882,98.062370 
	C60.139259,102.718307 60.042633,107.374237 59.853439,112.481018 
	C59.509483,107.602470 59.258091,102.273064 59.009026,96.477783 
	C59.205494,96.024605 59.399639,96.037315 59.852203,96.404900 
	C60.152374,97.193977 60.194130,97.628174 60.235882,98.062370 
z"/>
<path fill="#E29C97" opacity="1.000000" stroke="none" 
	d="
M59.547142,153.345306 
	C59.844330,155.399414 59.902950,157.740311 59.875679,160.511292 
	C59.629383,158.504944 59.468979,156.068497 59.547142,153.345306 
z"/>
<path fill="#E29C97" opacity="1.000000" stroke="none" 
	d="
M59.576401,118.271622 
	C59.852203,119.093887 59.908466,120.138474 59.880432,121.567696 
	C59.649708,120.799530 59.503284,119.646744 59.576401,118.271622 
z"/>
<path fill="#E29C97" opacity="1.000000" stroke="none" 
	d="
M202.336594,169.680283 
	C202.016022,159.302567 201.979553,148.624100 201.995178,137.481079 
	C202.363831,139.068573 202.952866,141.121048 202.949570,143.172562 
	C202.935486,151.908371 202.746094,160.643890 202.336594,169.680283 
z"/>
<path fill="#E29C97" opacity="1.000000" stroke="none" 
	d="
M202.240173,184.744873 
	C201.942429,181.985596 201.944672,178.951431 201.997162,175.467041 
	C202.211670,178.167877 202.375916,181.318924 202.240173,184.744873 
z"/>
<path fill="#E29C97" opacity="1.000000" stroke="none" 
	d="
M202.317535,129.729401 
	C201.998230,128.268997 201.943161,126.556244 201.922882,124.414978 
	C202.165710,125.816666 202.373734,127.646866 202.317535,129.729401 
z"/>
<path fill="#E29C97" opacity="1.000000" stroke="none" 
	d="
M201.861877,122.908325 
	C201.685120,122.942200 201.427292,122.719543 201.047241,122.271164 
	C201.210266,122.247551 201.495514,122.449677 201.861877,122.908325 
z"/>
<path fill="#E29C97" opacity="1.000000" stroke="none" 
	d="
M200.885681,121.915833 
	C200.947525,122.097916 200.467331,122.122124 200.233704,122.065445 
	C200.274673,121.917084 200.549255,121.825409 200.885681,121.915833 
z"/>
<path fill="#FDE5E1" opacity="1.000000" stroke="none" 
	d="
M90.811600,97.748260 
	C87.091682,97.627106 83.380211,97.192429 79.360779,96.541046 
	C82.136505,96.175644 85.220177,96.026932 88.654648,95.919830 
	C89.610313,96.452538 90.215179,96.943642 90.811600,97.748260 
z"/>
<path fill="#FDE5E1" opacity="1.000000" stroke="none" 
	d="
M96.771469,100.602325 
	C95.734825,100.832344 94.422577,100.842995 93.032715,100.527679 
	C94.135345,100.262138 95.315605,100.322548 96.771469,100.602325 
z"/>
<path fill="#FDE5E1" opacity="1.000000" stroke="none" 
	d="
M60.585693,97.991547 
	C60.194130,97.628174 60.152374,97.193977 60.142578,96.434158 
	C60.883652,96.071274 61.592758,96.034012 62.984695,96.002670 
	C64.108864,95.977859 64.550209,95.947128 64.991554,95.916397 
	C66.097031,95.982018 67.202515,96.047638 68.710983,96.222153 
	C67.929161,96.792152 66.778801,97.443359 65.550758,97.665802 
	C64.046310,97.938324 62.476856,97.851936 60.585693,97.991547 
z"/>
<path fill="#E29C97" opacity="1.000000" stroke="none" 
	d="
M71.018250,96.348785 
	C70.569038,96.282059 70.119827,96.215332 69.336914,96.079681 
	C70.198982,95.838242 71.394760,95.665718 72.800941,95.756699 
	C73.011345,96.020195 73.059120,96.185936 72.708229,96.177948 
	C71.910973,96.229568 71.464615,96.289177 71.018250,96.348785 
z"/>
<path fill="#E29C97" opacity="1.000000" stroke="none" 
	d="
M64.841148,95.708771 
	C64.550209,95.947128 64.108864,95.977859 63.338585,95.959564 
	C63.570015,95.774078 64.130379,95.637611 64.841148,95.708771 
z"/>
<path fill="#D6A9A5" opacity="1.000000" stroke="none" 
	d="
M81.780479,125.891159 
	C78.814293,125.890442 76.286209,125.624245 73.835304,125.945953 
	C69.335907,126.536545 67.457199,125.085335 67.897812,120.310547 
	C68.293289,116.024872 67.769920,111.655579 68.143173,107.365913 
	C68.244736,106.198730 70.066772,104.321068 71.192657,104.249985 
	C76.459671,103.917473 81.759346,104.102371 87.740120,104.102371 
	C87.740120,110.752342 87.985878,117.024193 87.494247,123.237694 
	C87.413841,124.253929 84.082298,125.012932 81.780479,125.891159 
M71.986351,107.365761 
	C71.658363,109.577026 71.056000,111.787498 71.049614,113.999695 
	C71.021095,123.875526 69.893852,122.750381 80.169647,122.959541 
	C83.904884,123.035568 85.086197,121.680229 84.983734,118.044502 
	C84.617882,105.063553 86.568802,107.360947 74.357254,107.078903 
	C73.861992,107.067467 73.365196,107.121696 71.986351,107.365761 
z"/>
<path fill="#D2A5A2" opacity="1.000000" stroke="none" 
	d="
M68.019432,137.089218 
	C67.995949,130.040359 67.995949,130.039108 74.314552,130.022461 
	C77.628899,130.013733 80.967987,129.777390 84.244781,130.125305 
	C85.463402,130.254700 87.450607,131.689377 87.521866,132.645493 
	C87.888031,137.558533 87.740753,142.509552 87.780716,147.447250 
	C87.805191,150.471359 86.587280,152.195633 83.294708,151.800400 
	C82.967949,151.761169 82.632423,151.791672 82.301025,151.794922 
	C67.979294,151.934906 67.979294,151.934967 68.019432,137.089218 
M71.108803,147.595551 
	C71.767693,147.932266 72.426582,148.268982 73.820229,148.738251 
	C74.564308,148.713257 75.308388,148.688278 76.908577,148.848404 
	C85.181999,149.026749 85.181999,149.026749 84.880264,141.115967 
	C84.850731,139.427353 84.821198,137.738724 84.918724,135.333435 
	C84.267525,134.582550 83.616318,133.831665 82.056847,133.005661 
	C78.714020,133.046448 75.371185,133.087219 71.561226,133.220917 
	C71.254112,133.403076 71.115395,133.672104 71.048935,134.945038 
	C71.090126,138.942169 71.131317,142.939301 71.108803,147.595551 
z"/>
<path fill="#D1A4A1" opacity="1.000000" stroke="none" 
	d="
M130.113647,124.582588 
	C129.954788,118.832909 130.038437,113.522980 129.878952,108.220352 
	C129.792343,105.340759 130.609756,103.898186 133.781540,104.061142 
	C137.586426,104.256630 141.417114,104.260574 145.221466,104.060059 
	C148.374832,103.893837 149.229309,105.285423 149.129822,108.184402 
	C148.970657,112.823235 148.989853,117.474403 149.125488,122.114746 
	C149.205246,124.843163 148.298843,126.127502 145.417892,125.914543 
	C140.369217,125.541344 135.309769,125.313881 130.113647,124.582588 
M143.147507,107.066757 
	C139.590530,107.066757 136.033569,107.066757 132.121826,107.066757 
	C132.121826,111.837204 131.911850,115.800270 132.253433,119.715225 
	C132.352264,120.847870 133.899857,122.583412 135.011429,122.785080 
	C145.616440,124.709152 146.954010,123.507889 146.854523,112.827187 
	C146.845291,111.835869 147.167740,110.658379 146.743668,109.897614 
	C146.133286,108.802620 144.979202,108.010696 143.147507,107.066757 
z"/>
<path fill="#D3A3A1" opacity="1.000000" stroke="none" 
	d="
M102.926117,151.335083 
	C101.720985,151.095459 100.515862,150.855835 99.121338,149.984039 
	C98.892937,148.886230 98.853920,148.420593 98.814903,147.954971 
	C98.838158,142.950394 98.861412,137.945816 98.902359,132.224533 
	C98.911942,131.335587 98.903839,131.163330 98.895729,130.991058 
	C104.922813,130.659119 110.949898,130.327179 117.476105,130.463623 
	C118.088570,133.314072 118.201920,135.696152 118.315262,138.078247 
	C118.280685,139.424850 118.246109,140.771454 118.171791,142.960602 
	C118.189354,145.893097 118.246666,147.983078 118.303970,150.073044 
	C118.303970,150.073044 118.154503,150.543762 117.615952,150.792633 
	C112.360313,151.139359 107.643211,151.237228 102.926117,151.335083 
M115.868713,141.457718 
	C115.855270,132.937836 115.855270,132.937820 108.282974,132.964798 
	C101.895821,132.987549 101.894722,132.987564 101.884727,139.440353 
	C101.881401,141.587708 101.789413,143.741425 101.931496,145.879379 
	C101.991219,146.778168 102.509956,148.386948 102.892822,148.408997 
	C106.654846,148.625656 110.504799,148.976929 114.153641,148.316605 
	C115.053757,148.153702 115.313835,144.453995 115.868713,141.457718 
z"/>
<path fill="#CFA19F" opacity="1.000000" stroke="none" 
	d="
M129.908844,137.089218 
	C129.948456,130.027832 129.948456,130.027817 136.327393,130.019363 
	C149.110703,130.002426 149.193207,130.003342 149.055573,142.689957 
	C148.951523,152.281616 150.653030,151.045776 140.595139,151.148544 
	C137.296707,151.182251 133.997635,151.153854 129.908020,151.153854 
	C129.908020,146.777328 129.908020,142.176208 129.908844,137.089218 
M138.545929,132.950287 
	C136.479950,133.058609 134.413986,133.166931 132.127808,133.286789 
	C132.127808,137.744003 131.919067,141.568924 132.247772,145.347092 
	C132.354248,146.570908 133.748016,148.525543 134.763031,148.670029 
	C137.853363,149.109909 141.072647,149.057739 144.183609,148.696518 
	C145.167618,148.582260 146.453995,147.017288 146.740784,145.895966 
	C147.179657,144.180038 146.895538,142.272797 146.876373,140.447220 
	C146.789688,132.193176 148.014099,133.018311 138.545929,132.950287 
z"/>
<path fill="#D19F9D" opacity="1.000000" stroke="none" 
	d="
M98.948639,105.369522 
	C105.013741,104.919586 111.059700,104.900505 117.579323,104.883850 
	C118.052994,104.886276 118.042587,104.949493 118.050423,105.390854 
	C118.137047,107.889481 118.215836,109.946747 118.294624,112.004021 
	C118.261101,113.051537 118.227570,114.099045 118.156395,115.987007 
	C118.109024,119.567635 118.099289,122.307808 118.089554,125.047989 
	C118.089554,125.047989 118.020348,125.035416 117.669678,125.090675 
	C116.849274,125.280563 116.379547,125.415192 115.909813,125.549820 
	C115.200882,125.481720 114.491959,125.413612 112.994537,125.295471 
	C109.128410,125.470406 106.050789,125.695374 102.973160,125.920349 
	C99.700996,126.400070 98.653748,124.858475 98.880058,121.750786 
	C99.067818,119.172417 98.886139,116.567146 98.892120,113.166367 
	C98.877373,111.888382 98.838623,111.417816 98.799866,110.947250 
	C98.843071,109.231628 98.886284,107.515999 98.948639,105.369522 
M108.452698,107.057907 
	C106.381401,107.057907 104.310104,107.057907 101.875008,107.057907 
	C101.875008,112.031082 101.742485,116.155174 101.977074,120.258270 
	C102.029472,121.174744 103.230949,122.582306 104.139870,122.806938 
	C113.268982,125.063148 115.847107,122.998283 115.887650,113.675003 
	C115.916115,107.128754 115.916122,107.128754 108.452698,107.057907 
z"/>
<path fill="#FDE5E1" opacity="1.000000" stroke="none" 
	d="
M130.951218,161.349884 
	C115.366501,161.751175 99.657166,161.816177 83.486961,161.816956 
	C84.781494,161.493591 86.535622,161.020477 88.292496,161.010056 
	C99.646019,160.942688 111.000137,160.973938 122.354065,160.978455 
	C125.178246,160.979568 128.002426,161.001328 130.951218,161.349884 
z"/>
<path fill="#FDE5E1" opacity="1.000000" stroke="none" 
	d="
M103.068420,151.681458 
	C107.643211,151.237228 112.360313,151.139359 117.544800,151.029083 
	C117.713303,151.571320 117.402328,152.614746 117.117317,152.607697 
	C112.479851,152.493073 107.845657,152.245438 103.068420,151.681458 
z"/>
<path fill="#FDE5E1" opacity="1.000000" stroke="none" 
	d="
M103.247032,126.223846 
	C106.050789,125.695374 109.128410,125.470406 112.643608,125.374344 
	C109.894417,125.844620 106.707664,126.185982 103.247032,126.223846 
z"/>
<path fill="#FDE5E1" opacity="1.000000" stroke="none" 
	d="
M118.462830,124.942505 
	C118.099289,122.307808 118.109024,119.567635 118.209755,116.377289 
	C121.176506,118.735016 120.373322,121.763969 118.462830,124.942505 
z"/>
<path fill="#FDE5E1" opacity="1.000000" stroke="none" 
	d="
M118.657150,137.942673 
	C118.201920,135.696152 118.088570,133.314072 117.937363,130.490067 
	C121.786903,132.135513 120.015419,135.024811 118.657150,137.942673 
z"/>
<path fill="#FDE5E1" opacity="1.000000" stroke="none" 
	d="
M118.640884,149.947174 
	C118.246666,147.983078 118.189354,145.893097 118.224457,143.362091 
	C118.537178,145.221146 118.757492,147.521225 118.640884,149.947174 
z"/>
<path fill="#FDE5E1" opacity="1.000000" stroke="none" 
	d="
M118.573868,111.787704 
	C118.215836,109.946747 118.137047,107.889481 118.081741,105.388489 
	C121.496605,106.799026 120.157547,109.187164 118.573868,111.787704 
z"/>
<path fill="#FDE5E1" opacity="1.000000" stroke="none" 
	d="
M136.000488,161.552765 
	C135.275116,161.857971 134.483063,161.852905 133.303955,161.756989 
	C133.922531,161.524933 134.928162,161.383713 136.000488,161.552765 
z"/>
<path fill="#FDE5E1" opacity="1.000000" stroke="none" 
	d="
M98.528748,111.009125 
	C98.838623,111.417816 98.877373,111.888382 98.847824,112.708145 
	C98.605568,112.395226 98.431602,111.733109 98.528748,111.009125 
z"/>
<path fill="#FDE5E1" opacity="1.000000" stroke="none" 
	d="
M116.009804,125.787964 
	C116.379547,125.415192 116.849274,125.280563 117.687202,125.121170 
	C117.406868,125.406311 116.758331,125.716209 116.009804,125.787964 
z"/>
<path fill="#FDE5E1" opacity="1.000000" stroke="none" 
	d="
M98.541855,148.017120 
	C98.853920,148.420593 98.892937,148.886230 98.880112,149.700119 
	C98.641777,149.392014 98.455292,148.735657 98.541855,148.017120 
z"/>
<path fill="#FDE5E1" opacity="1.000000" stroke="none" 
	d="
M71.185913,96.510185 
	C71.464615,96.289177 71.910973,96.229568 72.686127,96.261322 
	C72.461128,96.458977 71.907349,96.565277 71.185913,96.510185 
z"/>
<path fill="#FDE5E1" opacity="1.000000" stroke="none" 
	d="
M98.745605,131.080505 
	C98.903839,131.163330 98.911942,131.335587 98.863876,131.760345 
	C98.677986,131.831238 98.526894,131.659866 98.431900,131.461594 
	C98.404198,131.403763 98.536507,131.269272 98.745605,131.080505 
z"/>
<path fill="#D9AAA9" opacity="1.000000" stroke="none" 
	d="
M180.958069,151.410065 
	C180.510498,151.371429 180.062943,151.332809 179.057434,151.280212 
	C178.499496,151.266266 178.047333,151.370102 178.047333,151.370102 
	C172.963852,151.931839 171.222763,149.499664 172.064835,144.719513 
	C172.149811,144.237228 172.052216,143.725708 172.081436,143.230225 
	C172.331329,138.990067 172.590958,134.750473 172.847672,130.510712 
	C178.439301,130.356934 184.032181,130.100449 189.621094,130.168747 
	C190.390244,130.178162 191.783417,131.791763 191.794220,132.676025 
	C191.866806,138.618973 191.643784,144.565552 190.852982,150.809174 
	C189.164459,151.202713 188.139542,151.298004 187.114609,151.393280 
	C186.343948,151.359940 185.573288,151.326584 184.043823,151.260651 
	C182.509384,151.288727 181.733719,151.349396 180.958069,151.410065 
M175.010986,139.630402 
	C175.012146,140.626617 175.139679,141.641891 174.992661,142.615738 
	C174.344177,146.911530 175.907623,148.480698 180.428482,148.269592 
	C190.534546,147.797684 188.637558,149.379868 188.960129,138.736389 
	C189.070465,135.096069 188.655762,132.788712 183.991028,132.884125 
	C175.227768,133.063431 175.222687,132.814896 175.010986,139.630402 
z"/>
<path fill="#D6A8A6" opacity="1.000000" stroke="none" 
	d="
M191.337997,156.647339 
	C191.734756,162.625595 191.997467,168.270248 191.762665,173.894135 
	C191.716583,174.997650 189.752182,176.921768 188.662720,176.928711 
	C183.278549,176.963043 177.891098,176.480438 172.504791,176.180130 
	C172.374695,170.228027 172.126648,164.273438 172.251205,158.326675 
	C172.268417,157.505844 174.116943,156.057388 175.141968,156.035431 
	C180.433548,155.922150 185.733078,156.178848 191.337997,156.647339 
M188.924805,168.380737 
	C188.911606,166.223923 189.192871,164.006592 188.767044,161.934586 
	C188.537354,160.816971 187.247757,159.321381 186.180176,159.065582 
	C177.254364,156.926941 174.942352,158.828934 174.993195,167.895401 
	C174.995056,168.227234 175.043961,168.566406 174.992752,168.889786 
	C174.255325,173.547226 176.399429,175.003784 180.878326,174.925659 
	C188.702454,174.789154 188.705826,174.982742 188.924805,168.380737 
z"/>
<path fill="#FDEEE9" opacity="1.000000" stroke="none" 
	d="
M181.043243,151.689667 
	C181.733719,151.349396 182.509384,151.288727 183.663849,151.333801 
	C183.071243,151.616119 182.099823,151.792679 181.043243,151.689667 
z"/>
<path fill="#FDEEE9" opacity="1.000000" stroke="none" 
	d="
M187.355103,151.574280 
	C188.139542,151.298004 189.164459,151.202713 190.576920,151.135162 
	C189.841492,151.360352 188.718552,151.557816 187.355103,151.574280 
z"/>
<path fill="#FDEEE9" opacity="1.000000" stroke="none" 
	d="
M178.141815,151.470306 
	C178.047333,151.370102 178.499496,151.266266 178.722717,151.328094 
	C178.945938,151.389908 178.620819,151.627472 178.620819,151.627472 
	C178.620819,151.627472 178.236313,151.570526 178.141815,151.470306 
z"/>
<path fill="#EE8F88" opacity="1.000000" stroke="none" 
	d="
M112.618500,93.090454 
	C111.663925,93.459686 110.855690,93.476898 109.750031,93.447754 
	C109.293991,93.356369 109.073868,93.363174 108.985817,93.258698 
	C106.937859,90.828430 105.217148,86.738731 102.804390,86.280396 
	C97.362549,85.246643 98.083366,82.363914 99.200447,78.419617 
	C99.539154,78.042953 99.999352,77.885498 99.999352,77.885498 
	C101.049683,77.888939 102.100021,77.892380 103.923553,77.834412 
	C105.144730,75.527245 105.592697,73.281479 106.040672,71.035721 
	C108.060860,71.026093 110.081055,71.016464 112.533287,71.009392 
	C113.052521,72.373047 113.139709,73.734146 113.200882,75.822372 
	C113.809250,76.949089 114.443634,77.348686 115.078026,77.748276 
	C116.394386,77.846809 117.710739,77.945335 119.416069,78.101685 
	C119.641151,80.527191 119.477264,82.894890 119.156998,85.623596 
	C117.941399,85.990982 116.882172,85.997353 115.093987,86.028610 
	C114.036285,86.733269 113.707535,87.413025 113.378784,88.092781 
	C113.174133,89.641335 112.969490,91.189880 112.618500,93.090454 
z"/>
<path fill="#FDE0DB" opacity="1.000000" stroke="none" 
	d="
M105.658600,71.092896 
	C105.592697,73.281479 105.144730,75.527245 104.313004,77.773346 
	C104.378349,75.565804 104.827438,73.357941 105.658600,71.092896 
z"/>
<path fill="#FDE0DB" opacity="1.000000" stroke="none" 
	d="
M99.891609,77.735664 
	C99.999352,77.885498 99.539154,78.042953 99.297058,78.062073 
	C99.297935,77.916077 99.540901,77.750954 99.891609,77.735664 
z"/>
<path fill="#FDE0DB" opacity="1.000000" stroke="none" 
	d="
M113.648865,88.010681 
	C113.707535,87.413025 114.036285,86.733269 114.699211,86.072891 
	C114.661911,86.704384 114.290428,87.316483 113.648865,88.010681 
z"/>
<path fill="#FDE0DB" opacity="1.000000" stroke="none" 
	d="
M115.017944,77.478821 
	C114.443634,77.348686 113.809250,76.949089 113.263031,76.226242 
	C113.886765,76.338448 114.422318,76.773903 115.017944,77.478821 
z"/>
<path fill="#D19F9F" opacity="1.000000" stroke="none" 
	d="
M46.058720,139.033539 
	C46.059700,143.146622 46.059700,146.769241 46.059700,151.100174 
	C40.161301,151.100174 34.738377,151.230911 29.334730,150.966949 
	C28.469303,150.924683 27.034298,149.149429 26.982428,148.118958 
	C26.732052,143.144882 26.667021,138.137726 27.013136,133.175583 
	C27.090912,132.060562 29.024212,130.258621 30.199158,130.178497 
	C35.147980,129.841034 40.133099,130.035767 46.057739,130.035767 
	C46.057739,133.081314 46.057739,135.812195 46.058720,139.033539 
M29.120993,143.287384 
	C28.485704,147.581467 30.163074,149.560455 34.627705,148.907196 
	C35.764553,148.740845 36.996174,149.089310 38.095329,148.827698 
	C40.009281,148.372101 43.427280,147.719513 43.470829,146.986496 
	C43.739578,142.462494 43.255020,137.891998 42.938908,133.342651 
	C42.928413,133.191574 42.042599,133.001862 41.563610,132.998474 
	C37.632595,132.970657 33.701290,132.982788 29.119213,132.982788 
	C29.119213,136.478012 29.119213,139.414001 29.120993,143.287384 
z"/>
<path fill="#D09F9D" opacity="1.000000" stroke="none" 
	d="
M46.027256,158.277100 
	C46.005161,164.377457 45.965839,170.005585 45.895618,175.633316 
	C45.892063,175.918243 45.621952,176.199844 45.329239,176.767532 
	C39.572693,176.767532 33.680210,176.767532 26.893904,176.767532 
	C26.893904,170.521927 26.838633,164.310852 26.971327,158.103775 
	C26.986135,157.411026 28.057322,156.162888 28.658190,156.150864 
	C34.110527,156.041779 39.567966,156.121750 45.020844,156.263931 
	C45.361641,156.272812 45.676708,157.268311 46.027256,158.277100 
M29.108181,165.534454 
	C29.113516,167.528336 29.026302,169.528702 29.165037,171.513260 
	C29.229885,172.440887 29.677015,174.105255 30.043629,174.131317 
	C34.123055,174.421402 38.264252,174.791733 42.275845,174.270752 
	C43.060333,174.168884 43.778072,170.350967 43.813511,168.235046 
	C43.971191,158.820984 43.868656,159.068130 34.843658,158.746414 
	C30.238632,158.582291 28.348127,160.011230 29.108181,165.534454 
z"/>
<path fill="#FDF6F3" opacity="1.000000" stroke="none" 
	d="
M72.427734,107.255547 
	C73.365196,107.121696 73.861992,107.067467 74.357254,107.078903 
	C86.568802,107.360947 84.617882,105.063553 84.983734,118.044502 
	C85.086197,121.680229 83.904884,123.035568 80.169647,122.959541 
	C69.893852,122.750381 71.021095,123.875526 71.049614,113.999695 
	C71.056000,111.787498 71.658363,109.577026 72.427734,107.255547 
z"/>
<path fill="#FDFCF9" opacity="1.000000" stroke="none" 
	d="
M76.052467,148.663284 
	C75.308388,148.688278 74.564308,148.713257 73.374962,148.408630 
	C72.343964,147.698151 71.758232,147.317291 71.172501,146.936432 
	C71.131317,142.939301 71.090126,138.942169 71.284752,134.380981 
	C71.755592,133.635757 71.924858,133.406113 72.028358,133.127991 
	C75.371185,133.087219 78.714020,133.046448 82.524796,133.375916 
	C83.592384,134.514145 84.192024,135.282135 84.791664,136.050110 
	C84.821198,137.738724 84.850731,139.427353 84.496727,141.641403 
	C83.440224,146.831192 79.807861,147.823563 76.052467,148.663284 
z"/>
<path fill="#FEE7E2" opacity="1.000000" stroke="none" 
	d="
M76.480522,148.755844 
	C79.807861,147.823563 83.440224,146.831192 84.457237,142.062073 
	C85.181999,149.026749 85.181999,149.026749 76.480522,148.755844 
z"/>
<path fill="#FEE7E2" opacity="1.000000" stroke="none" 
	d="
M84.855194,135.691772 
	C84.192024,135.282135 83.592384,134.514145 82.978935,133.413483 
	C83.616318,133.831665 84.267525,134.582550 84.855194,135.691772 
z"/>
<path fill="#FEE7E2" opacity="1.000000" stroke="none" 
	d="
M71.140656,147.265991 
	C71.758232,147.317291 72.343964,147.698151 73.007584,148.342346 
	C72.426582,148.268982 71.767693,147.932266 71.140656,147.265991 
z"/>
<path fill="#FEE7E2" opacity="1.000000" stroke="none" 
	d="
M71.794792,133.174454 
	C71.924858,133.406113 71.755592,133.635757 71.332825,133.922470 
	C71.115395,133.672104 71.254112,133.403076 71.794792,133.174454 
z"/>
<path fill="#FEF4F2" opacity="1.000000" stroke="none" 
	d="
M143.602341,107.078087 
	C144.979202,108.010696 146.133286,108.802620 146.743668,109.897614 
	C147.167740,110.658379 146.845291,111.835869 146.854523,112.827187 
	C146.954010,123.507889 145.616440,124.709152 135.011429,122.785080 
	C133.899857,122.583412 132.352264,120.847870 132.253433,119.715225 
	C131.911850,115.800270 132.121826,111.837204 132.121826,107.066757 
	C136.033569,107.066757 139.590530,107.066757 143.602341,107.078087 
z"/>
<path fill="#FDF5F3" opacity="1.000000" stroke="none" 
	d="
M115.868423,141.918945 
	C115.313835,144.453995 115.053757,148.153702 114.153641,148.316605 
	C110.504799,148.976929 106.654846,148.625656 102.892822,148.408997 
	C102.509956,148.386948 101.991219,146.778168 101.931496,145.879379 
	C101.789413,143.741425 101.881401,141.587708 101.884727,139.440353 
	C101.894722,132.987564 101.895821,132.987549 108.282974,132.964798 
	C115.855270,132.937820 115.855270,132.937836 115.868423,141.918945 
z"/>
<path fill="#FDF3F1" opacity="1.000000" stroke="none" 
	d="
M139.022003,132.949692 
	C148.014099,133.018311 146.789688,132.193176 146.876373,140.447220 
	C146.895538,142.272797 147.179657,144.180038 146.740784,145.895966 
	C146.453995,147.017288 145.167618,148.582260 144.183609,148.696518 
	C141.072647,149.057739 137.853363,149.109909 134.763031,148.670029 
	C133.748016,148.525543 132.354248,146.570908 132.247772,145.347092 
	C131.919067,141.568924 132.127808,137.744003 132.127808,133.286789 
	C134.413986,133.166931 136.479950,133.058609 139.022003,132.949692 
z"/>
<path fill="#FEF6F3" opacity="1.000000" stroke="none" 
	d="
M108.918579,107.058464 
	C115.916122,107.128754 115.916115,107.128754 115.887650,113.675003 
	C115.847107,122.998283 113.268982,125.063148 104.139870,122.806938 
	C103.230949,122.582306 102.029472,121.174744 101.977074,120.258270 
	C101.742485,116.155174 101.875008,112.031082 101.875008,107.057907 
	C104.310104,107.057907 106.381401,107.057907 108.918579,107.058464 
z"/>
<path fill="#FEF6F4" opacity="1.000000" stroke="none" 
	d="
M175.010651,139.160385 
	C175.222687,132.814896 175.227768,133.063431 183.991028,132.884125 
	C188.655762,132.788712 189.070465,135.096069 188.960129,138.736389 
	C188.637558,149.379868 190.534546,147.797684 180.428482,148.269592 
	C175.907623,148.480698 174.344177,146.911530 174.992661,142.615738 
	C175.139679,141.641891 175.012146,140.626617 175.010651,139.160385 
z"/>
<path fill="#FEF6F4" opacity="1.000000" stroke="none" 
	d="
M188.922699,168.845428 
	C188.705826,174.982742 188.702454,174.789154 180.878326,174.925659 
	C176.399429,175.003784 174.255325,173.547226 174.992752,168.889786 
	C175.043961,168.566406 174.995056,168.227234 174.993195,167.895401 
	C174.942352,158.828934 177.254364,156.926941 186.180176,159.065582 
	C187.247757,159.321381 188.537354,160.816971 188.767044,161.934586 
	C189.192871,164.006592 188.911606,166.223923 188.922699,168.845428 
z"/>
<path fill="#FEF3F1" opacity="1.000000" stroke="none" 
	d="
M29.120102,142.818695 
	C29.119213,139.414001 29.119213,136.478012 29.119213,132.982788 
	C33.701290,132.982788 37.632595,132.970657 41.563610,132.998474 
	C42.042599,133.001862 42.928413,133.191574 42.938908,133.342651 
	C43.255020,137.891998 43.739578,142.462494 43.470829,146.986496 
	C43.427280,147.719513 40.009281,148.372101 38.095329,148.827698 
	C36.996174,149.089310 35.764553,148.740845 34.627705,148.907196 
	C30.163074,149.560455 28.485704,147.581467 29.120102,142.818695 
z"/>
<path fill="#FDF4F1" opacity="1.000000" stroke="none" 
	d="
M29.108345,165.062866 
	C28.348127,160.011230 30.238632,158.582291 34.843658,158.746414 
	C43.868656,159.068130 43.971191,158.820984 43.813511,168.235046 
	C43.778072,170.350967 43.060333,174.168884 42.275845,174.270752 
	C38.264252,174.791733 34.123055,174.421402 30.043629,174.131317 
	C29.677015,174.105255 29.229885,172.440887 29.165037,171.513260 
	C29.026302,169.528702 29.113516,167.528336 29.108345,165.062866 
z"/>
</svg>